<svg version="1.2" xmlns="http://www.w3.org/2000/svg" viewBox="0 0 1578 395" width="1578" height="395">
	<title>annual-report-2021-11-pdf-svg</title>
	<defs>
		<clipPath clipPathUnits="userSpaceOnUse" id="cp1">
			<path d="m6739.95-5720.13v14103.51l-9966.79-0.01v-14103.5z"/>
		</clipPath>
	</defs>
	<style>
		.s0 { fill: #a58c5d } 
		.s1 { fill: #1e235d } 
	</style>
	<g id="Clip-Path: Page 1" clip-path="url(#cp1)">
		<g id="Page 1">
			<path id="Path 27" class="s0" d="m140.6 197.7c20.9-29.4 45.2-23.5 73.7-21-7.6-7.5-11.8-17.6-11.8-29.3 0-25.1 21-45.2 46.9-45.2 54.4 0 47.7 61.1 24.3 61.1-5.1 0-9.2-4.2-10.9-8.4-0.8-3.3 0-7.5-0.8-10.9-1.7-5-6.7-8.3-12.6-8.3-3.3 0-6.7 0.8-8.4 3.3-7.5 7.6-3.3 21 1.7 28.5 6.7 10 18.4 15.9 31.8 15.9h1.7c37.6-4.2 48.5-35.2 38.5-64.5-3.4-12.5-17.6-30.1-34.3-38.5 30.1-16.8 39.3-56.1 37.6-79.6l-318 196.8 318 196.9c1.7-23.5-7.5-63.7-37.6-80.4 16.7-7.6 30.9-26 34.3-38.6 10-28.4-0.9-60.3-38.5-64.5h-1.7c-13.4 0-25.1 6.7-31.8 16-5 7.5-9.2 21.7-1.7 28.4 1.7 2.5 5.1 4.2 8.4 4.2 5.9 0 10.9-4.2 12.6-8.4 0.8-3.3 0-8.3 0.8-11.7 1.7-4.2 5.8-8.4 10.9-8.4 23.4 0 30.1 62-24.3 62-25.9 0-46.9-20.9-46.9-46 0-10.9 4.2-21 11.8-29.4-28.5 3.4-52.8 9.3-73.7-20.1z"/>
			<path id="Path 28" fill-rule="evenodd" class="s1" d="m475.3 305.7c-41.8 0-62.7-20.9-62.7-50.3 0-40.2 39.3-48.5 85.3-53.6v-10.8c0-20.1-12.5-25.2-30.1-25.2-14.2 0-32.6 5.9-46 13.4v-19.2c10-9.2 28.4-16.8 51.9-16.8 30.1 0 54.4 12.6 56.9 47.8 0 1.1 0 3.9 0 5v100.5c-11.7 6.7-41 9.2-55.3 9.2zm22.6-82.9c-30.1 0-52.7 5.8-52.7 33.5q0 13.4 5.9 20.1 5 5 12.5 6.7c9.2 3.3 25.1 2.5 34.3-0.9zm621 82.9c-29.3 0-41-20.1-41-41v-99.7h-17.6v-20.9h17.6v-16.7l34.3-21.8v38.5h24.3v20.9h-24.3v94.7c0 11.7 4.2 19.3 15.9 19.3 3.3 0 5.8 0 8.4-0.9v24.3c-3.4 1.7-9.3 3.3-17.6 3.3zm-133.9 0c-18.4 0-31-5-40.2-9.2v-25.1c15.9 11.7 61.9 15.1 61.9-13.4 0-13.4-9.2-19.3-25.1-26-30.1-10.8-36.8-27.6-36.8-43.5 0-49.4 67.8-58.6 87-28.5v19.3c-5-5.9-18.4-13.4-29.2-13.4-15.1 0-22.6 10-22.6 20.9 0 12.6 9.2 19.3 23.4 24.3 31 12.6 37.7 28.5 37.7 46.9 0 25.1-21.8 47.7-56.1 47.7zm411.7-5v-109.7c0-12.6-5-26-27.6-26-10.9 0-17.6 1.7-24.3 4.2v131.5h-34.3v-146.5c14.2-6.7 34.3-10.9 60.3-10.9 46 0 61.1 22.6 61.1 46.9v110.5zm-682.1-132.3c-13.4-5.9-32.6-2.5-41 1.7v130.6h-34.3v-146.5c15.9-7.6 36-12.6 75.3-10.9zm-112.9-24.3v157.4h-34.4v-157.4z"/>
			<path id="Path 29" fill-rule="evenodd" class="s1" d="m862 305.7c-41.9 0-62.8-20.9-62.8-50.3 0-40.2 38.5-48.5 85.4-53.6v-10.8c0-20.1-12.6-25.2-30.2-25.2-14.2 0-32.6 5.9-46 13.4v-19.2c10.1-9.2 28.5-16.8 51.9-16.8 30.1 0 54.4 12.6 56.1 47.8l0.8 1.6q0 1.7 0 3.4v100.5c-11.7 6.7-41 9.2-55.2 9.2zm22.6-82.9c-30.2 0-52.8 5.8-52.8 33.5q0 13.4 5.9 20.1 5 5 12.6 6.7c9.2 3.3 25.1 2.5 34.3-0.9zm333 82.9c-41.8 0-62.7-20.9-62.7-50.2 0-40.2 39.3-48.6 85.3-53.6v-11.7c0-19.3-12.5-25.2-30.1-25.2-14.2 0-32.6 6.7-45.2 13.4v-18.4c9.2-9.2 27.6-16.7 51.1-16.7 30.1 0 54.3 11.7 56.9 46.9 0 1.1 0 4.7 0 5.8v100.5c-11.8 5.9-41 9.3-55.3 9.2zm22.6-82.9c-30.1 0-52.7 5.9-52.7 33.5q0 12.6 6.7 19.3 4.2 5.9 11.7 7.5c9.2 2.5 25.1 2.5 34.3-1.6zm282 82.9c-41.8 0-62.7-20.1-62.7-49.4 0-41.1 39.3-49.5 86.2-53.6v-11.8c-0.9-20.1-12.6-25.1-31-25.1-14.2 0-32.6 6.7-45.2 13.4v-18.4c9.2-9.2 28.5-16.8 51.9-16.8 30.1 0 53.6 11.8 56.1 46.9 0 1.7 0 4.8 0 5.9v100.5c-11.7 5.9-41 8.4-55.3 8.4zm23.5-82.9c-31 0-53.6 6.7-53.6 34.3q0.8 12.6 6.7 19.3 4.2 5 12.6 7.5c8.3 2.5 25.1 2.5 34.3-1.7zm-961.1-99.6c-10 0-18-7.5-18-16.8 0-9.3 8-16.7 18-16.7 9.9 0 17.9 7.4 17.9 16.7 0 9.3-8 16.8-17.9 16.8z"/>
		</g>
	</g>
</svg>