<?xml version="1.0" encoding="UTF-8"?>
<svg version="1.1" xmlns="http://www.w3.org/2000/svg" width="256" height="256">
<path d="M0 0 C1.32 0.66 2.64 1.32 4 2 C4 3.32 4 4.64 4 6 C3.34 6 2.68 6 2 6 C2.32597168 6.5662207 2.65194336 7.13244141 2.98779297 7.71582031 C4.09727314 10.21950977 4.23207325 11.82657918 4.1953125 14.546875 C4.18886719 15.39121094 4.18242188 16.23554687 4.17578125 17.10546875 C4.15902344 17.97816406 4.14226563 18.85085937 4.125 19.75 C4.11597656 20.63816406 4.10695312 21.52632812 4.09765625 22.44140625 C4.07414577 24.62788058 4.04128499 26.81380094 4 29 C4.66 29 5.32 29 6 29 C6.33 27.35 6.66 25.7 7 24 C8.65 23.67 10.3 23.34 12 23 C12.16339222 25.85936385 12.14325432 27.69332197 10.91796875 30.31640625 C9.77331991 33.66267755 10.21776458 35.38096614 11.1875 38.75 C11.58001953 40.19632813 11.58001953 40.19632813 11.98046875 41.671875 C12.31691406 42.44015625 12.65335938 43.2084375 13 44 C13.99 44.33 14.98 44.66 16 45 C17.1875 47.5625 17.1875 47.5625 18 50 C20.31 50.33 22.62 50.66 25 51 C23.6875 52.5 23.6875 52.5 22 54 C21.01 54 20.02 54 19 54 C20.65 54.33 22.3 54.66 24 55 C22.75326318 58.45250196 21.46150294 61.25447749 19 64 C18.360625 64.28875 17.72125 64.5775 17.0625 64.875 C14.01693736 66.53621598 12.77177232 69.08923119 11 72 C9.35 71.34 7.7 70.68 6 70 C6 71.32 6 72.64 6 74 C6.99 74.99 6.99 74.99 8 76 C7.34 77.32 6.68 78.64 6 80 C10.16434334 82.47954966 10.16434334 82.47954966 14.875 82.6875 C15.57625 82.460625 16.2775 82.23375 17 82 C17.625 84.3125 17.625 84.3125 18 87 C17.34 87.99 16.68 88.98 16 90 C13.37302936 90.22137393 10.99106036 90.28162025 8.375 90.1875 C7.66859375 90.17396484 6.9621875 90.16042969 6.234375 90.14648438 C4.48925872 90.1111104 2.74453392 90.05730221 1 90 C1.90786785 92.40165288 1.90786785 92.40165288 5.3125 93.125 C9.01700659 94.15391819 9.01700659 94.15391819 13 94 C13 94.99 13 95.98 13 97 C13.99 97.33 14.98 97.66 16 98 C16.88082622 100.71318044 17.57876229 103.28883517 18.1875 106.0625 C18.36474609 106.82111328 18.54199219 107.57972656 18.72460938 108.36132812 C19.16136967 110.23821697 19.58219156 112.1188016 20 114 C20.66 114 21.32 114 22 114 C21.67 115.65 21.34 117.3 21 119 C18.6875 118.8125 18.6875 118.8125 16 118 C13 113.96551724 13 113.96551724 13 111 C12.01 111 11.02 111 10 111 C10.33 112.65 10.66 114.3 11 116 C11.99 116.33 12.98 116.66 14 117 C13.34 118.32 12.68 119.64 12 121 C9.6875 120.8125 9.6875 120.8125 7 120 C4 115.96551724 4 115.96551724 4 113 C3.030625 112.731875 2.06125 112.46375 1.0625 112.1875 C-0.4534375 111.5996875 -0.4534375 111.5996875 -2 111 C-2.33 110.01 -2.66 109.02 -3 108 C-5.95174492 106.81623454 -5.95174492 106.81623454 -9.4375 105.9375 C-15.8021148 104.1978852 -15.8021148 104.1978852 -18 102 C-20.71616785 101.37407549 -23.38171667 100.83932084 -26.125 100.375 C-26.87910156 100.2409375 -27.63320313 100.106875 -28.41015625 99.96875 C-30.27219918 99.63876771 -32.13595175 99.31845927 -34 99 C-34 97.35 -34 95.7 -34 94 C-32.906875 94.04125 -31.81375 94.0825 -30.6875 94.125 C-26.91107771 94.32074666 -26.91107771 94.32074666 -24 92 C-23.29618843 90.01276732 -22.6288189 88.01222047 -22 86 C-21.01 85.01 -21.01 85.01 -20 84 C-19.35232207 81.42938689 -19.35232207 81.42938689 -19 79 C-19.99 78.67 -20.98 78.34 -22 78 C-22.125 74.625 -22.125 74.625 -22 71 C-20 69 -20 69 -18.0546875 68.8046875 C-15.02734375 68.90234375 -15.02734375 68.90234375 -12 69 C-12.33 64.05 -12.66 59.1 -13 54 C-14.98 53.67 -16.96 53.34 -19 53 C-19.05411124 50.58303128 -19.09372278 48.16728213 -19.125 45.75 C-19.14175781 45.06808594 -19.15851562 44.38617188 -19.17578125 43.68359375 C-19.21213482 39.9391765 -19.07944349 37.17647273 -17 34 C-15.68 34 -14.36 34 -13 34 C-11.32774271 33.69595322 -9.65919896 33.36871088 -8 33 C-7.96261719 32.17757812 -7.92523437 31.35515625 -7.88671875 30.5078125 C-7.39579941 22.17180965 -6.72706463 14.09059694 -2 7 C-1.29187186 4.67891331 -0.61975848 2.34622853 0 0 Z M-14 44 C-14.33 44.99 -14.66 45.98 -15 47 C-14.34 47 -13.68 47 -13 47 C-13.33 46.01 -13.66 45.02 -14 44 Z M3 44 C1.73973202 46.52053595 2.08125555 47.8542098 2.4375 50.625 C2.53933594 51.44226563 2.64117187 52.25953125 2.74609375 53.1015625 C2.87177734 54.04128906 2.87177734 54.04128906 3 55 C4.32 55 5.64 55 7 55 C8.32575833 53.35460678 8.32575833 53.35460678 9 51 C7.92491802 47.76646596 7.92491802 47.76646596 6 45 C5.01 44.67 4.02 44.34 3 44 Z M9 56 C8.67 57.32 8.34 58.64 8 60 C8.66 58.68 9.32 57.36 10 56 C9.67 56 9.34 56 9 56 Z M15 56 C15 56.99 15 57.98 15 59 C15.66 59 16.32 59 17 59 C16.67 58.01 16.34 57.02 16 56 C15.67 56 15.34 56 15 56 Z M2 67 C2.33 67.66 2.66 68.32 3 69 C3.33 68.34 3.66 67.68 4 67 C3.34 67 2.68 67 2 67 Z M-12 69 C-11 72 -11 72 -11 72 Z M-11 73 C-10 75 -10 75 -10 75 Z M2 75 C2.33 75.99 2.66 76.98 3 78 C3 77.01 3 76.02 3 75 C2.67 75 2.34 75 2 75 Z " fill="#077789" transform="translate(34,66)"/>
<path d="M0 0 C0.66 0 1.32 0 2 0 C2.66 1.98 3.32 3.96 4 6 C5.65 6 7.3 6 9 6 C9 6.99 9 7.98 9 9 C8.01 9.33 7.02 9.66 6 10 C6.99 10.66 7.98 11.32 9 12 C9.8213102 16.54941437 9.54676705 20.8070537 7.625 25 C6 27 6 27 4 29 C4.495 30.485 4.495 30.485 5 32 C5.99 32.495 5.99 32.495 7 33 C6.67 35.31 6.34 37.62 6 40 C4.56465159 40.2226746 3.12654475 40.42761906 1.6875 40.625 C0.88699219 40.74101562 0.08648437 40.85703125 -0.73828125 40.9765625 C-3 41 -3 41 -6 39 C-6.6875 35.875 -6.6875 35.875 -7 33 C-7.74957157 36.47147842 -7.74957157 36.47147842 -8 40 C-9.65 40 -11.3 40 -13 40 C-13.33 40.99 -13.66 41.98 -14 43 C-14.66 43 -15.32 43 -16 43 C-16 43.99 -16 44.98 -16 46 C-17.3125 47.6875 -17.3125 47.6875 -19 49 C-19.99 49 -20.98 49 -22 49 C-22.33 49.66 -22.66 50.32 -23 51 C-19.08936776 52.47047336 -19.08936776 52.47047336 -15 53 C-15 52.34 -15 51.68 -15 51 C-15.66 51 -16.32 51 -17 51 C-17 50.34 -17 49.68 -17 49 C-14.6875 48.6875 -14.6875 48.6875 -12 49 C-10.1875 51.5 -10.1875 51.5 -9 54 C-8.01 53.34 -7.02 52.68 -6 52 C-3.8125 52.375 -3.8125 52.375 -2 53 C-1.875 58.75 -1.875 58.75 -3 61 C-8.66666667 61 -14.33333333 61 -20 61 C-20.845625 61.04125 -21.69125 61.0825 -22.5625 61.125 C-25 61 -25 61 -27 59 C-30.62793998 60.86566488 -30.62793998 60.86566488 -33 64 C-33.99 64 -34.98 64 -36 64 C-35.34 60.37 -34.68 56.74 -34 53 C-31.03 52.505 -31.03 52.505 -28 52 C-28.309375 51.443125 -28.61875 50.88625 -28.9375 50.3125 C-30.05761821 47.87459567 -30.56037364 45.63775814 -31 43 C-27.7 43.33 -24.4 43.66 -21 44 C-25.38545081 40.71091189 -28.0405978 40.47356809 -33.25 40.3125 C-33.99507812 40.27833984 -34.74015625 40.24417969 -35.5078125 40.20898438 C-37.33802492 40.12685946 -39.16898669 40.06174347 -41 40 C-39.79690907 32.93714856 -38.32990816 25.99295082 -36.5859375 19.04296875 C-35.81091885 15.5345165 -35.81091885 15.5345165 -36 10 C-31.38 10 -26.76 10 -22 10 C-20.64507663 12.70984673 -21.29227907 13.97801357 -21.99609375 16.90234375 C-22.33930664 18.36124023 -22.33930664 18.36124023 -22.68945312 19.84960938 C-22.93630859 20.86861328 -23.18316406 21.88761719 -23.4375 22.9375 C-23.91824723 24.94592676 -24.39623706 26.95501612 -24.87109375 28.96484375 C-25.08693115 29.8580835 -25.30276855 30.75132324 -25.52514648 31.67163086 C-26.09991459 34.09386583 -26.09991459 34.09386583 -26 37 C-25.01 36.505 -25.01 36.505 -24 36 C-23.61689523 34.68010621 -23.28963213 33.34350367 -23 32 C-22.525625 30.845 -22.05125 29.69 -21.5625 28.5 C-19.3464622 22.74264689 -18 16.1834318 -18 10 C-11.565 9.505 -11.565 9.505 -5 9 C-4.67 8.01 -4.34 7.02 -4 6 C-1.9375 5.3125 -1.9375 5.3125 0 5 C-0.2784375 4.0409375 -0.2784375 4.0409375 -0.5625 3.0625 C-0.706875 2.381875 -0.85125 1.70125 -1 1 C-0.67 0.67 -0.34 0.34 0 0 Z M-4 9 C-4 9.33 -4 9.66 -4 10 C-2.02 10 -0.04 10 2 10 C2 9.67 2 9.34 2 9 C0.02 9 -1.96 9 -4 9 Z M-31 55 C-31.33 56.32 -31.66 57.64 -32 59 C-31.01 58.01 -30.02 57.02 -29 56 C-29.66 55.67 -30.32 55.34 -31 55 Z M-23 55 C-23.33 55.99 -23.66 56.98 -24 58 C-23.01 58.495 -23.01 58.495 -22 59 C-21.67 57.68 -21.34 56.36 -21 55 C-21.66 55 -22.32 55 -23 55 Z M-15 55 C-14.67 56.32 -14.34 57.64 -14 59 C-13.67 57.68 -13.34 56.36 -13 55 C-13.66 55 -14.32 55 -15 55 Z M-6 55 C-6.33 56.32 -6.66 57.64 -7 59 C-6.34 57.68 -5.68 56.36 -5 55 C-5.33 55 -5.66 55 -6 55 Z " fill="#FDEE69" transform="translate(247,95)"/>
<path d="M0 0 C4.12494151 -0.05784708 8.24977944 -0.09354407 12.375 -0.125 C13.550625 -0.14175781 14.72625 -0.15851563 15.9375 -0.17578125 C17.61972656 -0.18544922 17.61972656 -0.18544922 19.3359375 -0.1953125 C20.37282715 -0.20578613 21.4097168 -0.21625977 22.47802734 -0.22705078 C25 0 25 0 27 2 C27.33028556 6.45885507 26.95844849 9.08310301 25 13 C25.30027117 14.67293936 25.63557767 16.33985384 26 18 C25.5625 20.8125 25.5625 20.8125 25 23 C25.99 23 26.98 23 28 23 C27.95875 22.13375 27.9175 21.2675 27.875 20.375 C28.00703992 16.80992222 28.79634011 14.3434997 30 11 C31.76118316 5.54919908 31.76118316 5.54919908 31 0 C38.92 0 46.84 0 55 0 C54.67 1.98 54.34 3.96 54 6 C51.9375 7.375 51.9375 7.375 50 8 C50.20625 8.7425 50.4125 9.485 50.625 10.25 C51 13 51 13 50.5 15.25 C49 17 49 17 45.375 17.75 C44.26125 17.8325 43.1475 17.915 42 18 C42 19.32 42 20.64 42 22 C44.97 21.67 47.94 21.34 51 21 C50.125 28.875 50.125 28.875 49 30 C46.46950598 30.07313567 43.96695163 30.09247527 41.4375 30.0625 C40.37112305 30.05573242 40.37112305 30.05573242 39.28320312 30.04882812 C37.52209987 30.03700864 35.76103964 30.01907263 34 30 C33.57460937 31.18916016 33.57460937 31.18916016 33.140625 32.40234375 C32 35 32 35 29.75 36.5625 C27 37 27 37 23.75 35.3125 C21 33 21 33 20 30 C12.08 30 4.16 30 -4 30 C-3.28838563 22.88385629 -2.38426691 16.95007814 -0.62109375 10.17578125 C0.05554038 6.71601051 0.10174142 3.51671439 0 0 Z M14 7 C13.67 8.32 13.34 9.64 13 11 C13.99 11 14.98 11 16 11 C16.33 9.68 16.66 8.36 17 7 C16.01 7 15.02 7 14 7 Z M45 9 C45.33 9.66 45.66 10.32 46 11 C46.66 10.67 47.32 10.34 48 10 C47.01 9.67 46.02 9.34 45 9 Z M11 17 C10.67 18.98 10.34 20.96 10 23 C11.32 22.67 12.64 22.34 14 22 C14.33 20.68 14.66 19.36 15 18 C13.68 17.67 12.36 17.34 11 17 Z M26 26 C25.34 26.66 24.68 27.32 24 28 C24.3185177 30.10820797 24.3185177 30.10820797 25 32 C26.65 32.33 28.3 32.66 30 33 C30.33 32.01 30.66 31.02 31 30 C29.68 30 28.36 30 27 30 C26.67 28.68 26.34 27.36 26 26 Z " fill="#FDE200" transform="translate(74,105)"/>
<path d="M0 0 C2.375 0.9375 2.375 0.9375 4.375 3.9375 C6.42503955 5.12982613 6.42503955 5.12982613 8.375 5.9375 C7.715 6.5975 7.055 7.2575 6.375 7.9375 C5.055 7.9375 3.735 7.9375 2.375 7.9375 C2.045 8.5975 1.715 9.2575 1.375 9.9375 C2.15746094 9.99808594 2.93992188 10.05867188 3.74609375 10.12109375 C4.75800781 10.20488281 5.76992187 10.28867188 6.8125 10.375 C8.32650391 10.49681641 8.32650391 10.49681641 9.87109375 10.62109375 C12.375 10.9375 12.375 10.9375 13.375 11.9375 C13.59102776 13.65597087 13.74625002 15.38217103 13.875 17.109375 C13.99875 18.69492188 13.99875 18.69492188 14.125 20.3125 C14.24875 21.983125 14.24875 21.983125 14.375 23.6875 C14.53894351 25.86999793 14.70551846 28.05230014 14.875 30.234375 C14.9471875 31.20729492 15.019375 32.18021484 15.09375 33.18261719 C15.37079821 36.3303711 15.37079821 36.3303711 16.375 40.9375 C11.755 40.9375 7.135 40.9375 2.375 40.9375 C2.375 38.9575 2.375 36.9775 2.375 34.9375 C-0.595 35.4325 -0.595 35.4325 -3.625 35.9375 C-4.12 38.4125 -4.12 38.4125 -4.625 40.9375 C-8.255 40.9375 -11.885 40.9375 -15.625 40.9375 C-14.79121707 36.76858536 -13.85944679 34.00259829 -12.0625 30.25 C-10.2328957 26.73630613 -10.2328957 26.73630613 -9.625 22.9375 C-10.285 22.9375 -10.945 22.9375 -11.625 22.9375 C-14.73950382 18.78482824 -14.73950382 18.78482824 -14.3125 15.625 C-14.085625 15.068125 -13.85875 14.51125 -13.625 13.9375 C-10.985 14.2675 -8.345 14.5975 -5.625 14.9375 C-7.275 13.6175 -8.925 12.2975 -10.625 10.9375 C-10.295 9.9475 -9.965 8.9575 -9.625 7.9375 C-8.965 7.9375 -8.305 7.9375 -7.625 7.9375 C-7.5425 7.36 -7.46 6.7825 -7.375 6.1875 C-6.08136351 2.30659052 -4.24622495 -0.10110059 0 0 Z M-2.625 2.9375 C-2.955 3.9275 -3.285 4.9175 -3.625 5.9375 C-2.305 5.9375 -0.985 5.9375 0.375 5.9375 C0.375 4.9475 0.375 3.9575 0.375 2.9375 C-0.615 2.9375 -1.605 2.9375 -2.625 2.9375 Z M-7.625 7.9375 C-7.295 8.5975 -6.965 9.2575 -6.625 9.9375 C-5.965 9.6075 -5.305 9.2775 -4.625 8.9375 C-5.615 8.6075 -6.605 8.2775 -7.625 7.9375 Z M-9.625 17.9375 C-8.625 19.9375 -8.625 19.9375 -8.625 19.9375 Z M0.375 24.9375 C0.045 26.2575 -0.285 27.5775 -0.625 28.9375 C0.365 28.6075 1.355 28.2775 2.375 27.9375 C1.715 26.9475 1.055 25.9575 0.375 24.9375 Z " fill="#FDE301" transform="translate(188.625,94.0625)"/>
<path d="M0 0 C5.625 -0.25 5.625 -0.25 9 2 C10.1875 5.125 10.1875 5.125 11 8 C14.0745356 7.2236068 14.0745356 7.2236068 16 5 C16.99088067 8.08273985 16.92482533 9.91724891 16 13 C16 13.66 16 14.32 16 15 C19.01031744 15.93423645 19.86650268 16.04449911 23 15 C22.38545304 18.99455527 20.29353263 21.74466336 18 25 C16.35 24.34 14.7 23.68 13 23 C13 24.32 13 25.64 13 27 C13.66 27.66 14.32 28.32 15 29 C14.34 30.32 13.68 31.64 13 33 C17.16434334 35.47954966 17.16434334 35.47954966 21.875 35.6875 C22.926875 35.3471875 22.926875 35.3471875 24 35 C24.625 37.3125 24.625 37.3125 25 40 C24.34 40.99 23.68 41.98 23 43 C20.37302936 43.22137393 17.99106036 43.28162025 15.375 43.1875 C14.66859375 43.17396484 13.9621875 43.16042969 13.234375 43.14648438 C11.48925872 43.1111104 9.74453392 43.05730221 8 43 C8.86882505 45.29378352 8.86882505 45.29378352 11.6875 46.0625 C16.7592804 49.02901306 19.40600164 53.81200328 22 59 C19.75 59.3125 19.75 59.3125 17 59 C15.63823078 57.35648543 14.31037934 55.68477344 13 54 C8.39340298 50.64281128 3.41142644 47.80380881 -2 46 C-3.6875 44.75 -3.6875 44.75 -5 43 C-5.1875 40.3125 -5.1875 40.3125 -5 38 C-2.69 38 -0.38 38 2 38 C0.68 36.68 -0.64 35.36 -2 34 C-2 34.99 -2 35.98 -2 37 C-4.97411124 38.23921302 -7.85262818 39.30058404 -11 40 C-10.1875 37.5625 -10.1875 37.5625 -9 35 C-7.515 34.505 -7.515 34.505 -6 34 C-5.67 33.01 -5.34 32.02 -5 31 C-3.66923011 30.65657551 -2.33568021 30.32380126 -1 30 C-0.34 29.01 0.32 28.02 1 27 C1.66 27 2.32 27 3 27 C3.0675838 24.09389639 3.08556448 21.41712684 2.5 18.5625 C1.87237325 15.34591293 1.9359091 12.26863565 2 9 C3.32 8.34 4.64 7.68 6 7 C4.02 7.33 2.04 7.66 0 8 C0 5.36 0 2.72 0 0 Z M9 20 C9.33 20.66 9.66 21.32 10 22 C10.33 21.34 10.66 20.68 11 20 C10.34 20 9.68 20 9 20 Z M9 28 C9.33 28.99 9.66 29.98 10 31 C10 30.01 10 29.02 10 28 C9.67 28 9.34 28 9 28 Z " fill="#6DAB97" transform="translate(27,113)"/>
<path d="M0 0 C4.62 0 9.24 0 14 0 C14.33 1.32 14.66 2.64 15 4 C15.33 2.68 15.66 1.36 16 0 C20.29 0 24.58 0 29 0 C29 4 29 4 27.46875 5.921875 C26.8190625 6.52515625 26.169375 7.1284375 25.5 7.75 C24.8503125 8.36359375 24.200625 8.9771875 23.53125 9.609375 C23.0259375 10.06828125 22.520625 10.5271875 22 11 C23.65386042 16.97233831 23.65386042 16.97233831 26.8125 22.1875 C27.4003125 23.0846875 27.4003125 23.0846875 28 24 C27.1875 27.25 27.1875 27.25 26 30 C22.94996033 30.28773959 20.03978993 30.43890015 17 30 C15.125 27.75 15.125 27.75 14 25 C13.01755155 23.65368175 12.02323436 22.31558703 11 21 C10.27743171 25.48133574 10.27743171 25.48133574 10 30 C5.05 30 0.1 30 -5 30 C-3.83081412 22.53519786 -2.42075856 15.24035723 -0.5859375 7.91015625 C0.16448436 4.67782054 0.16448436 4.67782054 0 0 Z " fill="#FDE200" transform="translate(132,105)"/>
<path d="M0 0 C0.66 0 1.32 0 2 0 C2.66 1.98 3.32 3.96 4 6 C5.65 6 7.3 6 9 6 C9 6.99 9 7.98 9 9 C8.01 9.33 7.02 9.66 6 10 C6.99 10.66 7.98 11.32 9 12 C9.8213102 16.54941437 9.54676705 20.8070537 7.625 25 C6 27 6 27 4 29 C4.33 29.99 4.66 30.98 5 32 C5.66 32.33 6.32 32.66 7 33 C6.67 35.31 6.34 37.62 6 40 C4.56465159 40.2226746 3.12654475 40.42761906 1.6875 40.625 C0.88699219 40.74101562 0.08648437 40.85703125 -0.73828125 40.9765625 C-3 41 -3 41 -6 39 C-6.6875 35.875 -6.6875 35.875 -7 33 C-10.465 33.495 -10.465 33.495 -14 34 C-14 32.68 -14 31.36 -14 30 C-17.62885324 29.84850702 -17.62885324 29.84850702 -21 31 C-20.80083984 29.85724609 -20.80083984 29.85724609 -20.59765625 28.69140625 C-19.53341395 22.4690845 -18.6281322 16.28132203 -18 10 C-11.565 9.505 -11.565 9.505 -5 9 C-4.67 8.01 -4.34 7.02 -4 6 C-1.9375 5.3125 -1.9375 5.3125 0 5 C-0.185625 4.360625 -0.37125 3.72125 -0.5625 3.0625 C-0.706875 2.381875 -0.85125 1.70125 -1 1 C-0.67 0.67 -0.34 0.34 0 0 Z M-4 9 C-4 9.33 -4 9.66 -4 10 C-2.02 10 -0.04 10 2 10 C2 9.67 2 9.34 2 9 C0.02 9 -1.96 9 -4 9 Z " fill="#FDE305" transform="translate(247,95)"/>
<path d="M0 0 C7.92 0 15.84 0 24 0 C23.67 1.98 23.34 3.96 23 6 C20.9375 7.375 20.9375 7.375 19 8 C19.20625 8.7425 19.4125 9.485 19.625 10.25 C20 13 20 13 19.5 15.25 C18 17 18 17 14.375 17.75 C12.704375 17.87375 12.704375 17.87375 11 18 C11 19.32 11 20.64 11 22 C13.97 21.67 16.94 21.34 20 21 C19.125 28.875 19.125 28.875 18 30 C15.46950598 30.07313567 12.96695163 30.09247527 10.4375 30.0625 C9.72658203 30.05798828 9.01566406 30.05347656 8.28320312 30.04882812 C6.52209987 30.03700864 4.76103964 30.01907263 3 30 C2.71640625 30.79277344 2.4328125 31.58554688 2.140625 32.40234375 C1 35 1 35 -1.25 36.5625 C-4 37 -4 37 -7.3125 35.4375 C-10 33 -10 33 -10.625 30.5625 C-9.80768502 27.21150856 -8.42547354 25.42547354 -6 23 C-5.01 23 -4.02 23 -3 23 C-3.061875 21.700625 -3.061875 21.700625 -3.125 20.375 C-2.99296008 16.80992222 -2.20365989 14.3434997 -1 11 C0.76118316 5.54919908 0.76118316 5.54919908 0 0 Z M14 9 C14.33 9.66 14.66 10.32 15 11 C15.66 10.67 16.32 10.34 17 10 C16.01 9.67 15.02 9.34 14 9 Z M-5 26 C-5.66 26.66 -6.32 27.32 -7 28 C-6.6814823 30.10820797 -6.6814823 30.10820797 -6 32 C-4.35 32.33 -2.7 32.66 -1 33 C-0.67 32.01 -0.34 31.02 0 30 C-1.32 30 -2.64 30 -4 30 C-4.33 28.68 -4.66 27.36 -5 26 Z " fill="#FDE303" transform="translate(105,105)"/>
<path d="M0 0 C0.33 0.66 0.66 1.32 1 2 C2.0725 1.95875 3.145 1.9175 4.25 1.875 C7.65747485 1.9885825 9.20739631 2.21273364 12 4 C12.33 3.34 12.66 2.68 13 2 C13.99 1.34 14.98 0.68 16 0 C20.16522304 1.38840768 23.45881786 3.96958808 27.0625 6.4375 C28.37927734 7.33275391 28.37927734 7.33275391 29.72265625 8.24609375 C32 10 32 10 34 13 C35.32 13 36.64 13 38 13 C37.38125 12.278125 36.7625 11.55625 36.125 10.8125 C34.16333647 8.21618062 33.04684 6.05328334 32 3 C33.32 2.34 34.64 1.68 36 1 C36.1546875 1.9590625 36.1546875 1.9590625 36.3125 2.9375 C36.6528125 3.9584375 36.6528125 3.9584375 37 5 C37.99 5.33 38.98 5.66 40 6 C40.88082622 8.71318044 41.57876229 11.28883517 42.1875 14.0625 C42.36474609 14.82111328 42.54199219 15.57972656 42.72460938 16.36132812 C43.16136967 18.23821697 43.58219156 20.1188016 44 22 C44.66 22 45.32 22 46 22 C45.505 24.475 45.505 24.475 45 27 C42.6875 26.8125 42.6875 26.8125 40 26 C37 21.96551724 37 21.96551724 37 19 C36.01 19 35.02 19 34 19 C34.495 21.475 34.495 21.475 35 24 C35.99 24.33 36.98 24.66 38 25 C37.34 26.32 36.68 27.64 36 29 C33.6875 28.8125 33.6875 28.8125 31 28 C28 23.96551724 28 23.96551724 28 21 C27.030625 20.731875 26.06125 20.46375 25.0625 20.1875 C24.051875 19.795625 23.04125 19.40375 22 19 C21.67 18.01 21.34 17.02 21 16 C18.04825508 14.81623454 18.04825508 14.81623454 14.5625 13.9375 C8.1978852 12.1978852 8.1978852 12.1978852 6 10 C3.28383215 9.37407549 0.61828333 8.83932084 -2.125 8.375 C-2.87910156 8.2409375 -3.63320312 8.106875 -4.41015625 7.96875 C-6.27219918 7.63876771 -8.13595175 7.31845927 -10 7 C-10 5.35 -10 3.7 -10 2 C-8.3603125 2.061875 -8.3603125 2.061875 -6.6875 2.125 C-2.91107771 2.32074666 -2.91107771 2.32074666 0 0 Z " fill="#04768C" transform="translate(10,158)"/>
<path d="M0 0 C0.99 0.33 1.98 0.66 3 1 C3.33 2.65 3.66 4.3 4 6 C6.31 6 8.62 6 11 6 C11 6.66 11 7.32 11 8 C11.78503906 7.91621094 12.57007813 7.83242187 13.37890625 7.74609375 C19.16348716 7.18537977 24.29363301 6.88353689 30 8 C30.66 8 31.32 8 32 8 C33.32 8 34.64 8 36 8 C35.67 10.64 35.34 13.28 35 16 C28 16 21 16 14 16 C14 15.34 14 14.68 14 14 C13.34 14 12.68 14 12 14 C12 14.66 12 15.32 12 16 C10.989375 15.95875 9.97875 15.9175 8.9375 15.875 C5.88170168 16.25541571 5.05889734 16.93325726 2.9765625 19.29296875 C1.23114645 21.81847891 -0.42631939 24.36444372 -2 27 C-4.16874252 26.49396008 -5.99967627 26.00016187 -8 25 C-8 26.32 -8 27.64 -8 29 C-7.34 29.33 -6.68 29.66 -6 30 C-6 30.99 -6 31.98 -6 33 C-9.06325753 32.39005934 -11.20050634 31.42271989 -13.75 29.625 C-14.36359375 29.20476562 -14.9771875 28.78453125 -15.609375 28.3515625 C-16.06828125 27.90554687 -16.5271875 27.45953125 -17 27 C-17 26.01 -17 25.02 -17 24 C-15.02 24.66 -13.04 25.32 -11 26 C-11.165 25.4225 -11.33 24.845 -11.5 24.25 C-12 22 -12 22 -12 18 C-11.67 17.67 -11.34 17.34 -11 17 C-11.99 16.67 -12.98 16.34 -14 16 C-14 15.34 -14 14.68 -14 14 C-14.66 14 -15.32 14 -16 14 C-16 14.66 -16 15.32 -16 16 C-17.99954746 16.04254356 -20.00041636 16.04080783 -22 16 C-23 15 -23 15 -23.3125 12.625 C-23 10 -23 10 -21.25 8.125 C-19 7 -19 7 -16.875 7.3125 C-16.25625 7.539375 -15.6375 7.76625 -15 8 C-12.91182529 8.06698138 -12.91182529 8.06698138 -10.5625 7.5 C-8 7 -8 7 -5 7 C-2.99690671 6.68578929 -0.99628664 6.3548954 1 6 C0.67 4.02 0.34 2.04 0 0 Z M1 9 C2 11 2 11 2 11 Z M-19 10 C-19.33 11.32 -19.66 12.64 -20 14 C-19.34 12.68 -18.68 11.36 -18 10 C-18.33 10 -18.66 10 -19 10 Z M-3 10 C-3.33 11.32 -3.66 12.64 -4 14 C-3.34 13.67 -2.68 13.34 -2 13 C-2.33 12.01 -2.66 11.02 -3 10 Z M16 10 C15.67 10.66 15.34 11.32 15 12 C15.66 12.66 16.32 13.32 17 14 C16.67 12.68 16.34 11.36 16 10 Z M21 10 C20.67 11.32 20.34 12.64 20 14 C20.66 13.67 21.32 13.34 22 13 C21.67 12.01 21.34 11.02 21 10 Z M0 14 C-1.485 16.475 -1.485 16.475 -3 19 C-1.01508358 18.73323796 -1.01508358 18.73323796 1 18 C1.33 17.01 1.66 16.02 2 15 C1.34 14.67 0.68 14.34 0 14 Z " fill="#FCFEFE" transform="translate(89,140)"/>
<path d="M0 0 C4.59306496 1.4859916 7.43569245 3.85014682 11 7 C10.67 7.66 10.34 8.32 10 9 C9.01 9 8.02 9 7 9 C8.32 9.99 9.64 10.98 11 12 C10.67 14.64 10.34 17.28 10 20 C8.1746875 20.0928125 8.1746875 20.0928125 6.3125 20.1875 C1.81254505 20.71315845 -0.02623841 22.58892052 -3 26 C-3.66 26 -4.32 26 -5 26 C-4.938125 26.7425 -4.87625 27.485 -4.8125 28.25 C-5.03094296 31.45383006 -5.90250005 32.64031256 -8 35 C-14.34507042 34.40140845 -14.34507042 34.40140845 -16.9375 32.8125 C-18.6022868 29.97256957 -18.59134486 28.21954425 -18 25 C-15 22.625 -15 22.625 -12 21 C-13.45817797 20.83197949 -14.9165484 20.66562857 -16.375 20.5 C-17.59316406 20.36078125 -17.59316406 20.36078125 -18.8359375 20.21875 C-20.96912825 19.96647649 -20.96912825 19.96647649 -23 20 C-23.99 20 -24.98 20 -26 20 C-26 18.35 -26 16.7 -26 15 C-26.99 17.475 -26.99 17.475 -28 20 C-28.66 20 -29.32 20 -30 20 C-30.125 14.25 -30.125 14.25 -29 12 C-26.0625 11.25 -26.0625 11.25 -23 11 C-22.34 11.66 -21.68 12.32 -21 13 C-20.01 12.34 -19.02 11.68 -18 11 C-15.7734375 11.0234375 -15.7734375 11.0234375 -13.375 11.375 C-12.57835937 11.48585937 -11.78171875 11.59671875 -10.9609375 11.7109375 C-10.31382812 11.80632812 -9.66671875 11.90171875 -9 12 C-7.63106761 12.05270463 -7.63106761 12.05270463 -5 11 C-5 9.68 -5 8.36 -5 7 C0.75 7.875 0.75 7.875 3 9 C2.319375 8.2575 1.63875 7.515 0.9375 6.75 C-1 4 -1 4 -0.75 1.6875 C-0.5025 1.130625 -0.255 0.57375 0 0 Z M-18 14 C-18.33 15.32 -18.66 16.64 -19 18 C-18.34 17.67 -17.68 17.34 -17 17 C-17.33 16.01 -17.66 15.02 -18 14 Z M-14 14 C-13 18 -13 18 -13 18 Z M-6 15 C-6 16.65 -6 18.3 -6 20 C-6.99 20.495 -6.99 20.495 -8 21 C-5.525 21.99 -5.525 21.99 -3 23 C-2.67 22.01 -2.34 21.02 -2 20 C-2.66 19.67 -3.32 19.34 -4 19 C-5.125 16.9375 -5.125 16.9375 -6 15 Z M2 17 C3 19 3 19 3 19 Z M-15 26 C-14.67 27.65 -14.34 29.3 -14 31 C-12.02 31.495 -12.02 31.495 -10 32 C-8.38050989 29.42786866 -7.95591249 28.32330841 -8.375 25.25 C-8.58125 24.5075 -8.7875 23.765 -9 23 C-11.15518172 23 -13.2161657 24.90225582 -15 26 Z " fill="#64CDDD" transform="translate(155,136)"/>
<path d="M0 0 C1.32 0.66 2.64 1.32 4 2 C4 3.32 4 4.64 4 6 C3.34 6 2.68 6 2 6 C2.48895752 6.84933105 2.48895752 6.84933105 2.98779297 7.71582031 C4.09727314 10.21950977 4.23207325 11.82657918 4.1953125 14.546875 C4.18564453 15.81337891 4.18564453 15.81337891 4.17578125 17.10546875 C4.15902344 17.97816406 4.14226563 18.85085937 4.125 19.75 C4.11597656 20.63816406 4.10695313 21.52632812 4.09765625 22.44140625 C4.07414577 24.62788058 4.04128499 26.81380094 4 29 C4.66 29 5.32 29 6 29 C6.33 27.35 6.66 25.7 7 24 C8.65 23.67 10.3 23.34 12 23 C12.16168475 25.82948308 12.10957047 27.73977014 11 30.375 C9.74126288 33.67918494 9.86254084 36.49479152 10 40 C4.25 41 4.25 41 2 41 C1.67 41.66 1.34 42.32 1 43 C0.34 43 -0.32 43 -1 43 C-1 43.66 -1 44.32 -1 45 C-3.31 45 -5.62 45 -8 45 C-8.26673893 33.32276232 -8.33151806 21.94659989 -3.796875 10.95703125 C-2.33815938 7.37459729 -1.19969344 3.6756565 0 0 Z " fill="#117C83" transform="translate(34,66)"/>
<path d="M0 0 C4.62 0 9.24 0 14 0 C15.34599514 2.69199028 14.71724571 3.89640732 14.00390625 6.796875 C13.77509766 7.7559375 13.54628906 8.715 13.31054688 9.703125 C13.06369141 10.70859375 12.81683594 11.7140625 12.5625 12.75 C12.07838055 14.72243363 11.60033371 16.69636944 11.12890625 18.671875 C10.91306885 19.5494043 10.69723145 20.42693359 10.47485352 21.33105469 C9.82483281 24.53272892 9.82483281 24.53272892 10 30 C5.05 30 0.1 30 -5 30 C-3.77550139 22.93558493 -2.33110154 15.99770663 -0.5859375 9.04296875 C0.18908115 5.5345165 0.18908115 5.5345165 0 0 Z " fill="#FDE300" transform="translate(211,105)"/>
<path d="M0 0 C2.32118724 1.74089043 3.36294453 3.54441679 5 6 C7.20725073 6.36362818 7.20725073 6.36362818 9.625 6.1875 C10.44226563 6.16042969 11.25953125 6.13335937 12.1015625 6.10546875 C12.72804688 6.07066406 13.35453125 6.03585938 14 6 C13.125 13.875 13.125 13.875 12 15 C9.46950598 15.07313567 6.96695163 15.09247527 4.4375 15.0625 C3.72658203 15.05798828 3.01566406 15.05347656 2.28320312 15.04882812 C0.52209987 15.03700864 -1.23896036 15.01907263 -3 15 C-3.28359375 15.79277344 -3.5671875 16.58554688 -3.859375 17.40234375 C-5 20 -5 20 -7.25 21.5625 C-10 22 -10 22 -13.3125 20.4375 C-16 18 -16 18 -16.625 15.5625 C-15.80768502 12.21150856 -14.42547354 10.42547354 -12 8 C-11.01 8 -10.02 8 -9 8 C-9.061875 7.05125 -9.12375 6.1025 -9.1875 5.125 C-9.125625 4.09375 -9.06375 3.0625 -9 2 C-5.53076119 -0.31282587 -4.07794425 -0.42478586 0 0 Z M-11 11 C-11.66 11.66 -12.32 12.32 -13 13 C-12.6814823 15.10820797 -12.6814823 15.10820797 -12 17 C-10.35 17.33 -8.7 17.66 -7 18 C-6.67 17.01 -6.34 16.02 -6 15 C-7.32 15 -8.64 15 -10 15 C-10.33 13.68 -10.66 12.36 -11 11 Z " fill="#FDE303" transform="translate(111,120)"/>
<path d="M0 0 C1.32 0.66 2.64 1.32 4 2 C4.55689631 12.62228146 4.55689631 12.62228146 1 17 C0.34 17.66 -0.32 18.32 -1 19 C-0.67 19.99 -0.34 20.98 0 22 C0.66 22.33 1.32 22.66 2 23 C1.67 25.31 1.34 27.62 1 30 C-0.43534841 30.2226746 -1.87345525 30.42761906 -3.3125 30.625 C-4.51326172 30.79902344 -4.51326172 30.79902344 -5.73828125 30.9765625 C-8 31 -8 31 -11 29 C-11.51171875 26.8359375 -11.51171875 26.8359375 -11.6875 24.375 C-11.75324219 23.55773437 -11.81898438 22.74046875 -11.88671875 21.8984375 C-11.92410156 21.27195312 -11.96148437 20.64546875 -12 20 C-12.99 19.67 -13.98 19.34 -15 19 C-14.34 17.35 -13.68 15.7 -13 14 C-10.525 14.99 -10.525 14.99 -8 16 C-8 15.34 -8 14.68 -8 14 C-8.99 13.67 -9.98 13.34 -11 13 C-11 12.67 -11 12.34 -11 12 C-9.906875 11.773125 -8.81375 11.54625 -7.6875 11.3125 C-3.49672376 9.82086778 -2.91792322 8.83584643 -1 5 C-0.34 5 0.32 5 1 5 C0.67 3.35 0.34 1.7 0 0 Z " fill="#FDE301" transform="translate(252,105)"/>
<path d="M0 0 C1.5 1.3125 1.5 1.3125 3 3 C3 3.99 3 4.98 3 6 C5.31 6 7.62 6 10 6 C10 6.99 10 7.98 10 9 C8.35 9 6.7 9 5 9 C5.38478516 10.28777344 5.38478516 10.28777344 5.77734375 11.6015625 C6.06955124 16.0615715 4.29311092 18.11757018 1.5625 21.375 C1.12873047 21.92027344 0.69496094 22.46554688 0.24804688 23.02734375 C-0.81905348 24.36415079 -1.90749038 25.6838773 -3 27 C-4.65 26.67 -6.3 26.34 -8 26 C-8.66 26.99 -9.32 27.98 -10 29 C-8.68 29.66 -7.36 30.32 -6 31 C-6.33 31.66 -6.66 32.32 -7 33 C-11.10958767 31.54955729 -14.43258745 29.48889248 -18 27 C-17.505 25.515 -17.505 25.515 -17 24 C-15.35 24.33 -13.7 24.66 -12 25 C-11.67 24.01 -11.34 23.02 -11 22 C-11.99 21.67 -12.98 21.34 -14 21 C-13.67 20.01 -13.34 19.02 -13 18 C-12.34 18 -11.68 18 -11 18 C-10.938125 17.319375 -10.87625 16.63875 -10.8125 15.9375 C-9.72084364 11.99074238 -7.93675667 8.87981125 -5 6 C-2.1875 5.5625 -2.1875 5.5625 0 6 C-0.185625 5.195625 -0.37125 4.39125 -0.5625 3.5625 C-0.706875 2.716875 -0.85125 1.87125 -1 1 C-0.67 0.67 -0.34 0.34 0 0 Z M-5 9 C-5.66 11.31 -6.32 13.62 -7 16 C-5.68 15.34 -4.36 14.68 -3 14 C-3 13.34 -3 12.68 -3 12 C-2.34 12.66 -1.68 13.32 -1 14 C-1.66 15.65 -2.32 17.3 -3 19 C-0.13522966 17.94958421 0.83913226 17.29875437 2.3125 14.5625 C3.27640461 11.91045173 3.27640461 11.91045173 2 9 C-0.31 9 -2.62 9 -5 9 Z " fill="#FFFFFF" transform="translate(122,6)"/>
<path d="M0 0 C2.0245738 1.93254772 3.42105792 3.63158688 5 6 C7.58380177 6.25030977 7.58380177 6.25030977 10 6 C10.33 6.66 10.66 7.32 11 8 C10.34 8.66 9.68 9.32 9 10 C6.875 9.625 6.875 9.625 5 9 C5.39703125 9.71542969 5.7940625 10.43085938 6.203125 11.16796875 C7 14 7 14 5.734375 16.67578125 C5.07953125 17.54589844 4.4246875 18.41601562 3.75 19.3125 C3.10546875 20.19550781 2.4609375 21.07851562 1.796875 21.98828125 C0.90742188 22.98408203 0.90742188 22.98408203 0 24 C-0.66 24 -1.32 24 -2 24 C-2.33 25.32 -2.66 26.64 -3 28 C-5.475 27.01 -5.475 27.01 -8 26 C-8.33 26.99 -8.66 27.98 -9 29 C-8.01 29.99 -7.02 30.98 -6 32 C-6.66 32.66 -7.32 33.32 -8 34 C-11.3 31.69 -14.6 29.38 -18 27 C-17.505 25.515 -17.505 25.515 -17 24 C-15.68 24.66 -14.36 25.32 -13 26 C-12.34 25.01 -11.68 24.02 -11 23 C-11.99 22.01 -12.98 21.02 -14 20 C-13.67 19.34 -13.34 18.68 -13 18 C-12.34 18 -11.68 18 -11 18 C-10.88140625 17.41605469 -10.7628125 16.83210938 -10.640625 16.23046875 C-9.59808225 12.60064004 -7.59090115 9.72726437 -5 7 C-2.1875 6.0625 -2.1875 6.0625 0 6 C-0.185625 5.195625 -0.37125 4.39125 -0.5625 3.5625 C-0.706875 2.716875 -0.85125 1.87125 -1 1 C-0.67 0.67 -0.34 0.34 0 0 Z M-3 9 C-4.32 11.31 -5.64 13.62 -7 16 C-6.01 16.495 -6.01 16.495 -5 17 C-3.68 15.68 -2.36 14.36 -1 13 C-1.66 14.98 -2.32 16.96 -3 19 C0.03162353 19.34022555 0.03162353 19.34022555 1.75 17.375 C3.40797179 14.22485359 2.84493576 12.37974305 2 9 C0.35 9 -1.3 9 -3 9 Z " fill="#FFFFFF" transform="translate(173,199)"/>
<path d="M0 0 C0.99 0.33 1.98 0.66 3 1 C3.33 2.65 3.66 4.3 4 6 C6.31 6 8.62 6 11 6 C10.67 6.99 10.34 7.98 10 9 C7.9375 9.6875 7.9375 9.6875 6 10 C6.20810303 10.59329102 6.41620605 11.18658203 6.63061523 11.79785156 C7 14 7 14 4.91015625 17.234375 C3.97374598 18.41650995 3.02392514 19.58811836 2.0625 20.75 C1.58103516 21.35199219 1.09957031 21.95398438 0.60351562 22.57421875 C-0.58635374 24.05861023 -1.79173374 25.53054438 -3 27 C-4.65 26.67 -6.3 26.34 -8 26 C-8.33 26.66 -8.66 27.32 -9 28 C-8.01 28.66 -7.02 29.32 -6 30 C-6.33 30.99 -6.66 31.98 -7 33 C-11.28477792 30.69281189 -14.72291137 28.67033927 -18 25 C-15.50935112 24.31292445 -13.62113708 24 -11 24 C-10.67 23.34 -10.34 22.68 -10 22 C-10.99 21.67 -11.98 21.34 -13 21 C-12.3735459 17.88861131 -11.32467593 15.6106267 -9.625 12.9375 C-8.99464844 11.93009766 -8.99464844 11.93009766 -8.3515625 10.90234375 C-7.01948229 9.0274216 -5.76020361 7.48131421 -4 6 C-1.3125 5.8125 -1.3125 5.8125 1 6 C0.67 4.02 0.34 2.04 0 0 Z M-4 9 C-5.88599343 11.38892501 -7 12.91851558 -7 16 C-5.68 15.34 -4.36 14.68 -3 14 C-3 13.34 -3 12.68 -3 12 C-2.01 12 -1.02 12 0 12 C-0.99 13.98 -1.98 15.96 -3 18 C0.04525807 18.34706779 0.04525807 18.34706779 1.75 16.3125 C3.26881593 14.02952417 3.26881593 14.02952417 2.6875 11.25 C2.460625 10.5075 2.23375 9.765 2 9 C-0.87364791 8.58253392 -0.87364791 8.58253392 -4 9 Z " fill="#FFFFFF" transform="translate(131,170)"/>
<path d="M0 0 C0.99 0.33 1.98 0.66 3 1 C3.33 2.65 3.66 4.3 4 6 C5.98 6 7.96 6 10 6 C10 7.32 10 8.64 10 10 C7.525 9.505 7.525 9.505 5 9 C5.39703125 9.71542969 5.7940625 10.43085937 6.203125 11.16796875 C7 14 7 14 5.734375 16.67578125 C5.07953125 17.54589844 4.4246875 18.41601562 3.75 19.3125 C3.10546875 20.19550781 2.4609375 21.07851562 1.796875 21.98828125 C0.90742188 22.98408203 0.90742188 22.98408203 0 24 C-0.66 24 -1.32 24 -2 24 C-2.33 25.32 -2.66 26.64 -3 28 C-4.32 27.34 -5.64 26.68 -7 26 C-7.66 26.66 -8.32 27.32 -9 28 C-8.01 28.99 -7.02 29.98 -6 31 C-6.495 32.485 -6.495 32.485 -7 34 C-8.48819457 33.0980639 -9.96532813 32.17785871 -11.4375 31.25 C-12.26121094 30.73953125 -13.08492187 30.2290625 -13.93359375 29.703125 C-16.21744593 27.8207818 -16.65514457 26.8842454 -17 24 C-14.525 24.99 -14.525 24.99 -12 26 C-10.66695302 23.10813214 -10.66695302 23.10813214 -11.9375 20.8125 C-12.288125 20.214375 -12.63875 19.61625 -13 19 C-11.73918284 17.01443758 -10.46601576 15.03671263 -9.1875 13.0625 C-8.47980469 11.96035156 -7.77210938 10.85820313 -7.04296875 9.72265625 C-5 7 -5 7 -2 6 C-1.01 6.33 -0.02 6.66 1 7 C0.67 4.69 0.34 2.38 0 0 Z M-5 9 C-5 9.99 -5 10.98 -5 12 C-6 14.1875 -6 14.1875 -7 16 C-3.99740483 16.33218192 -3.99740483 16.33218192 -2.3125 14.5 C-1.879375 14.005 -1.44625 13.51 -1 13 C-1 15.46278801 -1.85452863 16.85224119 -3 19 C-2.01 19 -1.02 19 0 19 C2.20142332 16.5609294 2.20142332 16.5609294 4 14 C3.34 12.35 2.68 10.7 2 9 C-0.31 9 -2.62 9 -5 9 Z " fill="#FFFFFF" transform="translate(205,65)"/>
<path d="M0 0 C1.33333333 2 2.66666667 4 4 6 C4.495 6.495 4.99 6.99 5.5 7.5 C7 9 7 9 9 12 C12.06556598 12.73343428 12.06556598 12.73343428 15 13 C13.6875 14.5 13.6875 14.5 12 16 C11.01 16 10.02 16 9 16 C10.65 16.33 12.3 16.66 14 17 C12.68197635 20.64991166 11.40785992 22.7895201 9 26 C5.7 25.34 2.4 24.68 -1 24 C-0.9175 22.865625 -0.835 21.73125 -0.75 20.5625 C-0.73199477 15.5210368 -2.42413042 11.29624962 -5 7 C-5.66 6.67 -6.32 6.34 -7 6 C-7.66 7.98 -8.32 9.96 -9 12 C-9.391875 11.525625 -9.78375 11.05125 -10.1875 10.5625 C-12.40808374 8.64820367 -14.13375709 8.38733012 -17 8 C-17 7.67 -17 7.34 -17 7 C-15.02 7 -13.04 7 -11 7 C-11 6.34 -11 5.68 -11 5 C-10.34 5 -9.68 5 -9 5 C-8.34 3.68 -7.68 2.36 -7 1 C-6.67 1.66 -6.34 2.32 -6 3 C-4.02 2.67 -2.04 2.34 0 2 C0 1.34 0 0.68 0 0 Z M5 18 C5 18.99 5 19.98 5 21 C5.66 21 6.32 21 7 21 C6.67 20.01 6.34 19.02 6 18 C5.67 18 5.34 18 5 18 Z " fill="#0D7A89" transform="translate(44,104)"/>
<path d="M0 0 C0.99 0 1.98 0 3 0 C3.33 1.98 3.66 3.96 4 6 C6.31 6 8.62 6 11 6 C10.67 6.99 10.34 7.98 10 9 C7.9375 9.6875 7.9375 9.6875 6 10 C6.38478516 10.78117187 6.38478516 10.78117187 6.77734375 11.578125 C7.13028489 15.41713391 4.75656468 17.80950095 2.5625 20.75 C2.12873047 21.35199219 1.69496094 21.95398438 1.24804688 22.57421875 C0.17664807 24.05769401 -0.91022455 25.52997152 -2 27 C-3.98 26.67 -5.96 26.34 -8 26 C-8.33 26.99 -8.66 27.98 -9 29 C-8.01 29.33 -7.02 29.66 -6 30 C-6.33 30.99 -6.66 31.98 -7 33 C-8.67427615 32.07615834 -10.33928003 31.13549431 -12 30.1875 C-12.928125 29.66542969 -13.85625 29.14335938 -14.8125 28.60546875 C-15.534375 28.07566406 -16.25625 27.54585937 -17 27 C-17 26.01 -17 25.02 -17 24 C-14.83125748 24.50603992 -13.00032373 24.99983813 -11 26 C-11 24.68 -11 23.36 -11 22 C-11.66 21.67 -12.32 21.34 -13 21 C-12.38858476 17.57607467 -11.15856471 15.69820588 -9 13 C-8.62617188 12.40316406 -8.25234375 11.80632813 -7.8671875 11.19140625 C-6.66877744 9.31841946 -5.52801235 7.61710928 -4 6 C-1.1875 5.5625 -1.1875 5.5625 1 6 C0.67 4.02 0.34 2.04 0 0 Z M-4 9 C-4.4640625 10.175625 -4.4640625 10.175625 -4.9375 11.375 C-6 14 -6 14 -7 16 C-6.01 16 -5.02 16 -4 16 C-3.34 15.01 -2.68 14.02 -2 13 C-1.34 13.33 -0.68 13.66 0 14 C-0.66 15.65 -1.32 17.3 -2 19 C-1.34 19 -0.68 19 0 19 C0.66 17.35 1.32 15.7 2 14 C2.66 14 3.32 14 4 14 C3.67 12.35 3.34 10.7 3 9 C0.69 9 -1.62 9 -4 9 Z " fill="#FFFFFF" transform="translate(163,36)"/>
<path d="M0 0 C5.625 -0.25 5.625 -0.25 9 2 C10.1875 5.125 10.1875 5.125 11 8 C14.0745356 7.2236068 14.0745356 7.2236068 16 5 C16.99088067 8.08273985 16.92482533 9.91724891 16 13 C16 13.66 16 14.32 16 15 C19.01031744 15.93423645 19.86650268 16.04449911 23 15 C22.38545304 18.99455527 20.29353263 21.74466336 18 25 C16.35 24.34 14.7 23.68 13 23 C13 24.32 13 25.64 13 27 C13.66 27.66 14.32 28.32 15 29 C14.01 29.66 13.02 30.32 12 31 C11.34 30.34 10.68 29.68 10 29 C9.34 29.66 8.68 30.32 8 31 C7.07330531 28.21991594 6.81349138 26.25805218 6.68359375 23.3671875 C6.62075195 22.03494141 6.62075195 22.03494141 6.55664062 20.67578125 C6.51732422 19.75152344 6.47800781 18.82726562 6.4375 17.875 C6.39431641 16.94300781 6.35113281 16.01101562 6.30664062 15.05078125 C6 8.36309524 6 8.36309524 6 7 C4.02 7.33 2.04 7.66 0 8 C0 5.36 0 2.72 0 0 Z M9 20 C9.33 20.66 9.66 21.32 10 22 C10.33 21.34 10.66 20.68 11 20 C10.34 20 9.68 20 9 20 Z " fill="#19808B" transform="translate(27,113)"/>
<path d="M0 0 C3.09555973 0.99224275 3.68552092 1.14649303 6.9375 0.0625 C7.5625 2.375 7.5625 2.375 7.9375 5.0625 C6.9475 6.5475 6.9475 6.5475 5.9375 8.0625 C3.31052936 8.28387393 0.92856036 8.34412025 -1.6875 8.25 C-2.39390625 8.23646484 -3.1003125 8.22292969 -3.828125 8.20898438 C-5.57324128 8.1736104 -7.31796608 8.11980221 -9.0625 8.0625 C-8.19367495 10.35628352 -8.19367495 10.35628352 -5.375 11.125 C-0.3032196 14.09151306 2.34350164 18.87450328 4.9375 24.0625 C2.6875 24.375 2.6875 24.375 -0.0625 24.0625 C-1.42426922 22.41898543 -2.75212066 20.74727344 -4.0625 19.0625 C-7.25450721 16.73623387 -10.62741422 14.75102461 -14.1875 13.04296875 C-16.0625 12.0625 -16.0625 12.0625 -18.0625 10.0625 C-18.0625 9.0725 -18.0625 8.0825 -18.0625 7.0625 C-16.015625 5.52734375 -16.015625 5.52734375 -13.3125 4 C-12.43078125 3.49339844 -11.5490625 2.98679688 -10.640625 2.46484375 C-9.78984375 2.00207031 -8.9390625 1.53929687 -8.0625 1.0625 C-7.37800781 0.65257812 -6.69351563 0.24265625 -5.98828125 -0.1796875 C-3.55600033 -1.13681224 -2.45602737 -0.79974687 0 0 Z " fill="#197F8D" transform="translate(44.0625,147.9375)"/>
<path d="M0 0 C0.66 0.33 1.32 0.66 2 1 C2.625 3.5625 2.625 3.5625 3 6 C5.31 6 7.62 6 10 6 C10 6.99 10 7.98 10 9 C8.35 9 6.7 9 5 9 C5.38478516 10.28777344 5.38478516 10.28777344 5.77734375 11.6015625 C6.06955124 16.0615715 4.29311092 18.11757018 1.5625 21.375 C1.12873047 21.92027344 0.69496094 22.46554688 0.24804688 23.02734375 C-0.81905348 24.36415079 -1.90749038 25.6838773 -3 27 C-3.804375 26.814375 -4.60875 26.62875 -5.4375 26.4375 C-6.283125 26.293125 -7.12875 26.14875 -8 26 C-8.33 26.33 -8.66 26.66 -9 27 C-10.51928038 27.07179964 -12.04167482 27.08392007 -13.5625 27.0625 C-14.38878906 27.05347656 -15.21507812 27.04445313 -16.06640625 27.03515625 C-17.02353516 27.01775391 -17.02353516 27.01775391 -18 27 C-18 26.01 -18 25.02 -18 24 C-16.02 24.33 -14.04 24.66 -12 25 C-12 24.01 -12 23.02 -12 22 C-12.66 21.67 -13.32 21.34 -14 21 C-13.67 20.01 -13.34 19.02 -13 18 C-12.34 18 -11.68 18 -11 18 C-10.938125 17.319375 -10.87625 16.63875 -10.8125 15.9375 C-9.72084364 11.99074238 -7.93675667 8.87981125 -5 6 C-2.1875 5.5625 -2.1875 5.5625 0 6 C-0.185625 5.195625 -0.37125 4.39125 -0.5625 3.5625 C-0.706875 2.716875 -0.85125 1.87125 -1 1 C-0.67 0.67 -0.34 0.34 0 0 Z M-5 9 C-5.66 11.31 -6.32 13.62 -7 16 C-6.01 15.67 -5.02 15.34 -4 15 C-3.67 14.34 -3.34 13.68 -3 13 C-2.34 13.33 -1.68 13.66 -1 14 C-1.66 15.65 -2.32 17.3 -3 19 C0.44004627 17.85331791 1.26635169 17.12056696 3 14 C2.77802187 11.3015411 2.77802187 11.3015411 2 9 C-0.31 9 -2.62 9 -5 9 Z " fill="#FFFFFF" transform="translate(215,229)"/>
<path d="M0 0 C2.01822917 0.06510417 4.03645833 0.13020833 6.0546875 0.1953125 C6.7146875 3.1653125 7.3746875 6.1353125 8.0546875 9.1953125 C6.6315625 10.3090625 6.6315625 10.3090625 5.1796875 11.4453125 C2.72936349 13.47376469 1.18143387 15.1530973 0.0546875 18.1953125 C0.7971875 17.7003125 1.5396875 17.2053125 2.3046875 16.6953125 C5.0546875 15.1953125 5.0546875 15.1953125 9.0546875 15.1953125 C9.0546875 14.2053125 9.0546875 13.2153125 9.0546875 12.1953125 C10.3746875 12.8553125 11.6946875 13.5153125 13.0546875 14.1953125 C13.0546875 14.8553125 13.0546875 15.5153125 13.0546875 16.1953125 C10.7446875 16.1953125 8.4346875 16.1953125 6.0546875 16.1953125 C6.0546875 17.8453125 6.0546875 19.4953125 6.0546875 21.1953125 C7.0446875 21.5253125 8.0346875 21.8553125 9.0546875 22.1953125 C8.7246875 23.5153125 8.3946875 24.8353125 8.0546875 26.1953125 C6.39854093 26.57750017 4.73011726 26.90926352 3.0546875 27.1953125 C2.7246875 26.8653125 2.3946875 26.5353125 2.0546875 26.1953125 C-0.27349214 25.82770519 -2.607151 25.49289669 -4.9453125 25.1953125 C-5.31771034 18.61628397 -5.31771034 18.61628397 -3.5078125 16.5703125 C-2.9921875 16.1165625 -2.4765625 15.6628125 -1.9453125 15.1953125 C-1.22334088 12.58920173 -1.22334088 12.58920173 -0.9453125 10.1953125 C-1.9353125 9.8653125 -2.9253125 9.5353125 -3.9453125 9.1953125 C-4.0703125 5.8203125 -4.0703125 5.8203125 -3.9453125 2.1953125 C-1.9453125 0.1953125 -1.9453125 0.1953125 0 0 Z " fill="#0C7A86" transform="translate(15.9453125,134.8046875)"/>
<path d="M0 0 C2.3125 -0.3125 2.3125 -0.3125 5 0 C6.8125 2.5 6.8125 2.5 8 5 C8.99 4.34 9.98 3.68 11 3 C13.1875 3.375 13.1875 3.375 15 4 C15.125 9.75 15.125 9.75 14 12 C8.33333333 12 2.66666667 12 -3 12 C-4.2684375 12.061875 -4.2684375 12.061875 -5.5625 12.125 C-8 12 -8 12 -10 10 C-13.62793998 11.86566488 -13.62793998 11.86566488 -16 15 C-16.99 15 -17.98 15 -19 15 C-18.34 11.37 -17.68 7.74 -17 4 C-14.125 3.375 -14.125 3.375 -11 3 C-10.34 3.66 -9.68 4.32 -9 5 C-8.29875 4.649375 -7.5975 4.29875 -6.875 3.9375 C-3.49731414 2.8360807 -1.41919407 3.20483859 2 4 C2 3.34 2 2.68 2 2 C1.34 2 0.68 2 0 2 C0 1.34 0 0.68 0 0 Z M-14 6 C-14.33 7.32 -14.66 8.64 -15 10 C-14.01 9.01 -13.02 8.02 -12 7 C-12.66 6.67 -13.32 6.34 -14 6 Z M-6 6 C-6.33 6.99 -6.66 7.98 -7 9 C-6.01 9.495 -6.01 9.495 -5 10 C-4.67 8.68 -4.34 7.36 -4 6 C-4.66 6 -5.32 6 -6 6 Z M2 6 C2.33 7.32 2.66 8.64 3 10 C3.33 8.68 3.66 7.36 4 6 C3.34 6 2.68 6 2 6 Z M11 6 C10.67 7.32 10.34 8.64 10 10 C10.66 8.68 11.32 7.36 12 6 C11.67 6 11.34 6 11 6 Z " fill="#45C3D7" transform="translate(230,144)"/>
<path d="M0 0 C0.66 0 1.32 0 2 0 C2.66 1.98 3.32 3.96 4 6 C5.65 6 7.3 6 9 6 C9 6.99 9 7.98 9 9 C7.68 9 6.36 9 5 9 C5.33 10.98 5.66 12.96 6 15 C5.34 15 4.68 15 4 15 C3.566875 16.175625 3.566875 16.175625 3.125 17.375 C2 20 2 20 0 22 C-3.33058011 22.52588107 -4.60020349 22.28406594 -7.375 20.3125 C-9 18 -9 18 -8.8125 15.5 C-8.4103125 14.2625 -8.4103125 14.2625 -8 13 C-7.814375 12.236875 -7.62875 11.47375 -7.4375 10.6875 C-7.293125 10.130625 -7.14875 9.57375 -7 9 C-6.34 9 -5.68 9 -5 9 C-4.67 8.01 -4.34 7.02 -4 6 C-1.9375 5.3125 -1.9375 5.3125 0 5 C-0.2784375 4.0409375 -0.2784375 4.0409375 -0.5625 3.0625 C-0.706875 2.381875 -0.85125 1.70125 -1 1 C-0.67 0.67 -0.34 0.34 0 0 Z M-4 9 C-4 9.33 -4 9.66 -4 10 C-2.02 10 -0.04 10 2 10 C2 9.67 2 9.34 2 9 C0.02 9 -1.96 9 -4 9 Z " fill="#FDE72A" transform="translate(247,95)"/>
<path d="M0 0 C0.99 0.66 1.98 1.32 3 2 C3.4788035 5.03242219 3.24499336 6.55901196 1.75 9.25 C-0.18001672 11.18001672 -1.33246269 11.63206382 -4 12 C-3.896875 12.7425 -3.79375 13.485 -3.6875 14.25 C-4 17 -4 17 -6.25 19.375 C-9 21 -9 21 -11.0625 20.9375 C-13.44177576 19.78623754 -15.14704081 18.91913631 -17 17 C-17.5 14 -17.5 14 -17 11 C-14.73599988 8.73599988 -13.05224368 8.01741456 -10 7 C-10.33 6.01 -10.66 5.02 -11 4 C-10.15014 1.45042001 -9.33327717 0.25283096 -7.1875 -1.375 C-4.16096057 -2.23972555 -2.75387593 -1.41224407 0 0 Z M-7 2 C-7 3.65 -7 5.3 -7 7 C-4.525 7.495 -4.525 7.495 -2 8 C-1.34 6.68 -0.68 5.36 0 4 C-1.37485532 2.45833358 -1.37485532 2.45833358 -3 1 C-5.0745356 0.8509288 -5.0745356 0.8509288 -7 2 Z M-9 9 C-11.67676547 10.37249963 -11.67676547 10.37249963 -14 12 C-13.72382467 13.94074861 -13.72382467 13.94074861 -13 16 C-11.515 16.99 -11.515 16.99 -10 18 C-6.68539295 16.29107501 -6.68539295 16.29107501 -6.3125 12.875 C-6.209375 11.92625 -6.10625 10.9775 -6 10 C-6.99 9.67 -7.98 9.34 -9 9 Z " fill="#FFFFFF" transform="translate(38,225)"/>
<path d="M0 0 C2.875 2.1875 2.875 2.1875 5 5 C4.91498029 8.57082798 4.00413395 9.99379907 2 13 C-0.125 13.6875 -0.125 13.6875 -2 14 C-2.061875 14.928125 -2.12375 15.85625 -2.1875 16.8125 C-3 20 -3 20 -5.1875 22.0625 C-8 23 -8 23 -11.25 21.75 C-14 20 -14 20 -15 19 C-15.46153846 13.69230769 -15.46153846 13.69230769 -13.75 11.125 C-12 10 -12 10 -8 10 C-8.20625 9.443125 -8.4125 8.88625 -8.625 8.3125 C-9.11387536 5.29776859 -8.37891032 3.6852464 -7 1 C-4.35955695 -0.32022153 -2.93650531 -0.40974493 0 0 Z M-4 3 C-4.99 4.485 -4.99 4.485 -6 6 C-5.67 6.99 -5.34 7.98 -5 9 C-2.60280568 9.67958603 -2.60280568 9.67958603 0 10 C0.66 9.34 1.32 8.68 2 8 C2 7.01 2 6.02 2 5 C-0.81509993 2.7226499 -0.81509993 2.7226499 -4 3 Z M-8 11 C-8 11.66 -8 12.32 -8 13 C-9.32 13.33 -10.64 13.66 -12 14 C-11.72382467 15.94074861 -11.72382467 15.94074861 -11 18 C-9.515 18.99 -9.515 18.99 -8 20 C-5.10067643 17.60490662 -4.49831724 15.68754757 -4 12 C-5.32 11.67 -6.64 11.34 -8 11 Z " fill="#FFFFFF" transform="translate(226,44)"/>
<path d="M0 0 C2 2 2 2 2.375 4.875 C1.92491816 8.62568199 0.87398748 9.66488517 -2 12 C-3.051875 11.5875 -4.10375 11.175 -5.1875 10.75 C-9.02402192 9.53946058 -9.02402192 9.53946058 -11.9375 11.875 C-12.9584375 12.926875 -12.9584375 12.926875 -14 14 C-13.01 15.485 -13.01 15.485 -12 17 C-11.01 17 -10.02 17 -9 17 C-8.67 15.35 -8.34 13.7 -8 12 C-7.01 12 -6.02 12 -5 12 C-3.85183606 14.81822057 -3.94347399 15.85369738 -5.0625 18.75 C-7 21 -7 21 -9.875 21.625 C-13.89757751 20.8204845 -15.38727033 19.07379961 -18 16 C-17.3125 12.625 -17.3125 12.625 -16 9 C-13.375 7.5625 -13.375 7.5625 -11 7 C-11.0825 6.236875 -11.165 5.47375 -11.25 4.6875 C-11 2 -11 2 -9.4375 0.125 C-5.97560081 -1.47279963 -3.64504476 -0.87751077 0 0 Z M-7 2 C-7.77242269 3.83700789 -7.77242269 3.83700789 -8 6 C-6.64555699 7.77190909 -6.64555699 7.77190909 -5 9 C-3.35 8.01 -1.7 7.02 0 6 C-1.22590192 3.92022703 -1.22590192 3.92022703 -3 2 C-4.32 2 -5.64 2 -7 2 Z " fill="#FFFFFF" transform="translate(29,61)"/>
<path d="M0 0 C2.3125 1.125 2.3125 1.125 4 3 C4.5 5.9375 4.5 5.9375 4 9 C2.1875 11.375 2.1875 11.375 0 13 C-0.99 13 -1.98 13 -3 13 C-2.938125 13.928125 -2.87625 14.85625 -2.8125 15.8125 C-3 19 -3 19 -4.0625 20.9375 C-7.25352692 22.68741799 -9.58913653 21.91362414 -13 21 C-15.0625 19.375 -15.0625 19.375 -16 17 C-15.1875 13.25 -15.1875 13.25 -14 10 C-12.35 9.67 -10.7 9.34 -9 9 C-9.0825 8.071875 -9.165 7.14375 -9.25 6.1875 C-9 3 -9 3 -7.3125 1.125 C-4.55634792 -0.21583074 -3.02966069 -0.4544491 0 0 Z M-5 3 C-5.33 4.65 -5.66 6.3 -6 8 C-3.525 8.99 -3.525 8.99 -1 10 C-0.34 9.34 0.32 8.68 1 8 C0.6814823 5.89179203 0.6814823 5.89179203 0 4 C-1.65 3.67 -3.3 3.34 -5 3 Z M-8 10 C-8 10.66 -8 11.32 -8 12 C-9.65 12.66 -11.3 13.32 -13 14 C-13 14.99 -13 15.98 -13 17 C-10.28450846 19.30671915 -10.28450846 19.30671915 -7.8125 18.625 C-7.214375 18.41875 -6.61625 18.2125 -6 18 C-6 16.35 -6 14.7 -6 13 C-5.34 12.67 -4.68 12.34 -4 12 C-5.32 11.34 -6.64 10.68 -8 10 Z " fill="#FFFFFF" transform="translate(236,208)"/>
<path d="M0 0 C3.06744199 0.83076554 4.20039282 1.25516349 6 3.8125 C7 5.6875 7 5.6875 7 7.8125 C4.75 10.5625 4.75 10.5625 2 12.8125 C1.01 12.8125 0.02 12.8125 -1 12.8125 C-0.731875 13.534375 -0.46375 14.25625 -0.1875 15 C0 17.8125 0 17.8125 -2.1875 20.6875 C-5 22.8125 -5 22.8125 -7.0625 22.8125 C-7.701875 22.4825 -8.34125 22.1525 -9 21.8125 C-9.7425 21.44125 -10.485 21.07 -11.25 20.6875 C-13 18.8125 -13 18.8125 -13.25 15.125 C-13.1675 14.031875 -13.085 12.93875 -13 11.8125 C-12.030625 11.461875 -11.06125 11.11125 -10.0625 10.75 C-9.051875 10.110625 -8.04125 9.47125 -7 8.8125 C-6.25823993 5.28736472 -6.25823993 5.28736472 -6 1.8125 C-3 -0.1875 -3 -0.1875 0 0 Z M-1 2.8125 C-1.99 3.4725 -2.98 4.1325 -4 4.8125 C-3.34 6.4625 -2.68 8.1125 -2 9.8125 C-0.35 9.4825 1.3 9.1525 3 8.8125 C2.67 7.1625 2.34 5.5125 2 3.8125 C1.01 3.4825 0.02 3.1525 -1 2.8125 Z M-6 9.8125 C-6.33 10.4725 -6.66 11.1325 -7 11.8125 C-7.99 12.1425 -8.98 12.4725 -10 12.8125 C-10 14.4625 -10 16.1125 -10 17.8125 C-8.02 18.8025 -8.02 18.8025 -6 19.8125 C-4.33153266 18.11754044 -4.33153266 18.11754044 -3 15.8125 C-3.06709284 13.14109537 -3.06709284 13.14109537 -4 10.8125 C-4.66 10.4825 -5.32 10.1525 -6 9.8125 Z " fill="#FFFFFF" transform="translate(192,178.1875)"/>
<path d="M0 0 C1.83502135 3.05836891 0.91538061 5.53108204 0.125 8.875 C-2.0135485 11.0135485 -3.00775314 11.30155063 -5.875 11.875 C-5.606875 12.431875 -5.33875 12.98875 -5.0625 13.5625 C-4.875 15.875 -4.875 15.875 -7 18.6875 C-9.875 20.875 -9.875 20.875 -12.4375 20.9375 C-15.43136907 19.63248015 -16.98779558 18.56063706 -18.875 15.875 C-18.9375 12.8125 -18.9375 12.8125 -17.875 9.875 C-17.070625 9.400625 -16.26625 8.92625 -15.4375 8.4375 C-11.84741768 6.24842541 -11.94906254 3.81322931 -10.875 -0.125 C-7.3073842 -3.07750963 -3.7895837 -2.27375022 0 0 Z M-6.875 0.875 C-7.865 1.37 -7.865 1.37 -8.875 1.875 C-8.875 3.525 -8.875 5.175 -8.875 6.875 C-5.905 7.37 -5.905 7.37 -2.875 7.875 C-2.545 6.225 -2.215 4.575 -1.875 2.875 C-4.26568734 1.76863605 -4.26568734 1.76863605 -6.875 0.875 Z M-10.875 8.875 C-13.55176547 10.24749963 -13.55176547 10.24749963 -15.875 11.875 C-15.76193303 13.83394361 -15.76193303 13.83394361 -14.875 15.875 C-12.38465614 17.17160434 -12.38465614 17.17160434 -9.875 17.875 C-8.11037317 14.78690305 -7.875 13.64187864 -7.875 9.875 C-8.865 9.545 -9.855 9.215 -10.875 8.875 Z " fill="#FFFFFF" transform="translate(71.875,91.125)"/>
<path d="M0 0 C-0.75 6.75 -0.75 6.75 -3 9 C-5.125 9.625 -5.125 9.625 -7 10 C-6.87625 11.11375 -6.87625 11.11375 -6.75 12.25 C-7 15 -7 15 -8.625 17.375 C-11 19 -11 19 -14.0625 19 C-17.42258858 17.85614006 -18.42464938 17.15070125 -20 14 C-20.4375 11.4375 -20.4375 11.4375 -20 9 C-17.72285584 6.80137805 -16.02076303 6.00692101 -13 5 C-12.9175 3.88625 -12.835 2.7725 -12.75 1.625 C-12 -2 -12 -2 -10.25 -3.5625 C-6.09852778 -4.36973071 -3.37225487 -2.24816991 0 0 Z M-8 -1 C-8.99 -0.505 -8.99 -0.505 -10 0 C-10 1.65 -10 3.3 -10 5 C-7.525 5.99 -7.525 5.99 -5 7 C-4.34 5.35 -3.68 3.7 -3 2 C-5.37612865 0.39092892 -5.37612865 0.39092892 -8 -1 Z M-12 7 C-14.57327433 8.21030974 -14.57327433 8.21030974 -17 10 C-17 11.32 -17 12.64 -17 14 C-14.18490007 16.2773501 -14.18490007 16.2773501 -11 16 C-10.34 13.69 -9.68 11.38 -9 9 C-9.99 8.34 -10.98 7.68 -12 7 Z " fill="#FFFFFF" transform="translate(189,18)"/>
<path d="M0 0 C2.05026025 0.2945583 2.05026025 0.2945583 4.06640625 0.25390625 C5.38640625 0.25390625 6.70640625 0.25390625 8.06640625 0.25390625 C7.73640625 2.89390625 7.40640625 5.53390625 7.06640625 8.25390625 C0.06640625 8.25390625 -6.93359375 8.25390625 -13.93359375 8.25390625 C-13.93359375 7.59390625 -13.93359375 6.93390625 -13.93359375 6.25390625 C-14.59359375 6.25390625 -15.25359375 6.25390625 -15.93359375 6.25390625 C-15.93359375 6.91390625 -15.93359375 7.57390625 -15.93359375 8.25390625 C-16.59359375 8.25390625 -17.25359375 8.25390625 -17.93359375 8.25390625 C-18.05859375 2.50390625 -18.05859375 2.50390625 -16.93359375 0.25390625 C-11.08418798 -0.76741857 -5.87942249 -0.72687696 0 0 Z M-11.93359375 2.25390625 C-12.26359375 2.91390625 -12.59359375 3.57390625 -12.93359375 4.25390625 C-12.27359375 4.91390625 -11.61359375 5.57390625 -10.93359375 6.25390625 C-11.26359375 4.93390625 -11.59359375 3.61390625 -11.93359375 2.25390625 Z M-6.93359375 2.25390625 C-7.26359375 3.57390625 -7.59359375 4.89390625 -7.93359375 6.25390625 C-7.27359375 5.92390625 -6.61359375 5.59390625 -5.93359375 5.25390625 C-6.26359375 4.26390625 -6.59359375 3.27390625 -6.93359375 2.25390625 Z " fill="#57CBDB" transform="translate(116.93359375,147.74609375)"/>
<path d="M0 0 C0.66 0 1.32 0 2 0 C2.66 1.98 3.32 3.96 4 6 C6.31 6 8.62 6 11 6 C10.67 6.99 10.34 7.98 10 9 C8.35 9 6.7 9 5 9 C5.38478516 10.28777344 5.38478516 10.28777344 5.77734375 11.6015625 C6.06955124 16.0615715 4.29311092 18.11757018 1.5625 21.375 C0.9118457 22.19291016 0.9118457 22.19291016 0.24804688 23.02734375 C-0.81905348 24.36415079 -1.90749038 25.6838773 -3 27 C-3.99 26.67 -4.98 26.34 -6 26 C-6.08153933 24.41753293 -6.13943557 22.83383727 -6.1875 21.25 C-6.22230469 20.36828125 -6.25710937 19.4865625 -6.29296875 18.578125 C-5.94923684 15.55328417 -4.99772541 14.24416398 -3 12 C-2.01 12.33 -1.02 12.66 0 13 C-0.99 14.98 -1.98 16.96 -3 19 C0.88734369 15.79181756 0.88734369 15.79181756 2.3125 11.1875 C2.1578125 10.1046875 2.1578125 10.1046875 2 9 C0.02 9 -1.96 9 -4 9 C-4.66 10.32 -5.32 11.64 -6 13 C-5.67 10.69 -5.34 8.38 -5 6 C-3.35 6 -1.7 6 0 6 C-0.2784375 4.7934375 -0.2784375 4.7934375 -0.5625 3.5625 C-0.706875 2.716875 -0.85125 1.87125 -1 1 C-0.67 0.67 -0.34 0.34 0 0 Z " fill="#FFFFFF" transform="translate(6,81)"/>
<path d="M0 0 C0.99 0.33 1.98 0.66 3 1 C3.33 2.65 3.66 4.3 4 6 C6.31 6 8.62 6 11 6 C10.34 9.3 9.68 12.6 9 16 C4 16 -1 16 -6 16 C-6 13.36 -6 10.72 -6 8 C-1.25 6 -1.25 6 1 6 C0.67 4.02 0.34 2.04 0 0 Z M1 9 C2 11 2 11 2 11 Z M-3 10 C-3.33 11.32 -3.66 12.64 -4 14 C-3.34 13.67 -2.68 13.34 -2 13 C-2.33 12.01 -2.66 11.02 -3 10 Z " fill="#49C4D7" transform="translate(89,140)"/>
<path d="M0 0 C0.66 0 1.32 0 2 0 C2.66 1.32 3.32 2.64 4 4 C8.04622502 4.36980013 8.04622502 4.36980013 11 2 C11.66 2.66 12.32 3.32 13 4 C11.37660195 5.70884005 9.70680947 7.37446717 8 9 C7.34 9 6.68 9 6 9 C6.061875 9.7425 6.12375 10.485 6.1875 11.25 C5.96905704 14.45383006 5.09749995 15.64031256 3 18 C-3.34507042 17.40140845 -3.34507042 17.40140845 -5.9375 15.8125 C-7.6022868 12.97256957 -7.59134486 11.21954425 -7 8 C-4.0625 5.875 -4.0625 5.875 -1 4 C-0.04768403 1.87880872 -0.04768403 1.87880872 0 0 Z M-4 9 C-3.67 10.65 -3.34 12.3 -3 14 C-1.02 14.495 -1.02 14.495 1 15 C2.61949011 12.42786866 3.04408751 11.32330841 2.625 8.25 C2.41875 7.5075 2.2125 6.765 2 6 C-0.15518172 6 -2.2161657 7.90225582 -4 9 Z " fill="#FEFEFE" transform="translate(144,153)"/>
<path d="M0 0 C2.06316032 0.08084521 2.06316032 0.08084521 4.25 -0.5625 C7.40879938 -1.06503627 9.88704434 -0.65154886 13 0 C13 1.32 13 2.64 13 4 C12.34 4 11.68 4 11 4 C11 5.32 11 6.64 11 8 C6 8 1 8 -4 8 C-4 6.35 -4 4.7 -4 3 C-4.66 4.65 -5.32 6.3 -6 8 C-6.66 8 -7.32 8 -8 8 C-8.125 2.25 -8.125 2.25 -7 0 C-3.80926781 -1.0635774 -3.06624043 -0.89019883 0 0 Z M4 2 C3.67 3.32 3.34 4.64 3 6 C3.66 5.67 4.32 5.34 5 5 C4.67 4.01 4.34 3.02 4 2 Z M8 2 C9 6 9 6 9 6 Z " fill="#43C1D7" transform="translate(133,148)"/>
<path d="M0 0 C3.16501619 0.48016271 5.21267989 1.65950991 7.75 3.5625 C8.67039062 4.24505859 8.67039062 4.24505859 9.609375 4.94140625 C10.29773438 5.46541016 10.29773438 5.46541016 11 6 C9.84826645 8.46800047 8.95216435 10.04783565 7 12 C6.01 12 5.02 12 4 12 C3.67 14.31 3.34 16.62 3 19 C2.34 19 1.68 19 1 19 C-0.5078125 16.91796875 -0.5078125 16.91796875 -2.125 14.1875 C-2.66382812 13.29417969 -3.20265625 12.40085938 -3.7578125 11.48046875 C-5 9 -5 9 -5 6 C-2.03 6 0.94 6 4 6 C2.35 4.35 0.7 2.7 -1 1 C-0.67 0.67 -0.34 0.34 0 0 Z M-1 9 C-0.34 9.66 0.32 10.32 1 11 C1 10.34 1 9.68 1 9 C0.34 9 -0.32 9 -1 9 Z " fill="#FFFFFF" transform="translate(105,207)"/>
<path d="M0 0 C3.15330554 0.60694155 5.18888867 1.6416665 7.75 3.5625 C8.67039062 4.24505859 8.67039062 4.24505859 9.609375 4.94140625 C10.29773438 5.46541016 10.29773438 5.46541016 11 6 C10.6875 7.875 10.6875 7.875 10 10 C7 12 7 12 4 13 C4.2784375 13.928125 4.2784375 13.928125 4.5625 14.875 C5 17 5 17 4 19 C3.34 19 2.68 19 2 19 C2 18.34 2 17.68 2 17 C1.34 17 0.68 17 0 17 C-1.65 13.7 -3.3 10.4 -5 7 C0.625 5.875 0.625 5.875 4 7 C3.34 6.401875 2.68 5.80375 2 5.1875 C0 3 0 3 0 0 Z " fill="#FFFFFF" transform="translate(95,43)"/>
<path d="M0 0 C3.06325753 0.60994066 5.20050634 1.57728011 7.75 3.375 C8.36359375 3.79523438 8.9771875 4.21546875 9.609375 4.6484375 C10.29773438 5.31746094 10.29773438 5.31746094 11 6 C11 6.99 11 7.98 11 9 C10.34 9 9.68 9 9 9 C8.67 10.32 8.34 11.64 8 13 C7.34 13 6.68 13 6 13 C6 13.99 6 14.98 6 16 C2.93674247 15.39005934 0.79949366 14.42271989 -1.75 12.625 C-2.36359375 12.20476562 -2.9771875 11.78453125 -3.609375 11.3515625 C-4.06828125 10.90554687 -4.5271875 10.45953125 -5 10 C-5 9.01 -5 8.02 -5 7 C-2.36 7 0.28 7 3 7 C2.67 6.01 2.34 5.02 2 4 C1.34 4 0.68 4 0 4 C0 2.68 0 1.36 0 0 Z M7 7 C7 7.66 7 8.32 7 9 C7.66 8.67 8.32 8.34 9 8 C8.34 7.67 7.68 7.34 7 7 Z " fill="#FFFFFF" transform="translate(196,166)"/>
<path d="M0 0 C3.15330554 0.60694155 5.18888867 1.6416665 7.75 3.5625 C8.67039063 4.24505859 8.67039063 4.24505859 9.609375 4.94140625 C10.29773438 5.46541016 10.29773438 5.46541016 11 6 C9.25 10.875 9.25 10.875 7 12 C6.01 11.67 5.02 11.34 4 11 C4 13.31 4 15.62 4 18 C3.34 18.33 2.68 18.66 2 19 C0.80286983 17.21475351 -0.38247279 15.4215972 -1.5625 13.625 C-2.55443359 12.12839844 -2.55443359 12.12839844 -3.56640625 10.6015625 C-4.03949219 9.74304688 -4.51257813 8.88453125 -5 8 C-4.67 7.34 -4.34 6.68 -4 6 C-0.7 6.33 2.6 6.66 6 7 C3.69 5.35 1.38 3.7 -1 2 C-0.67 1.34 -0.34 0.68 0 0 Z " fill="#FFFFFF" transform="translate(137,73)"/>
<path d="M0 0 C4.10958767 1.45044271 7.43258745 3.51110752 11 6 C10.67 6.99 10.34 7.98 10 9 C9.34 9 8.68 9 8 9 C8 9.99 8 10.98 8 12 C7.34 12.66 6.68 13.32 6 14 C5.67 14.66 5.34 15.32 5 16 C0.89041233 14.54955729 -2.43258745 12.48889248 -6 10 C-5.67 9.01 -5.34 8.02 -5 7 C-2.69 7 -0.38 7 2 7 C1.484375 6.401875 0.96875 5.80375 0.4375 5.1875 C-0.036875 4.465625 -0.51125 3.74375 -1 3 C-0.67 2.01 -0.34 1.02 0 0 Z " fill="#FFFFFF" transform="translate(229,32)"/>
<path d="M0 0 C4.59306496 1.4859916 7.43569245 3.85014682 11 7 C8.25 12.875 8.25 12.875 6 14 C5.67 14.99 5.34 15.98 5 17 C0.71522208 14.69281189 -2.72291137 12.67033927 -6 9 C-5.67 8.34 -5.34 7.68 -5 7 C-2.69 7.33 -0.38 7.66 2 8 C1.67 7.4225 1.34 6.845 1 6.25 C0 4 0 4 0 0 Z " fill="#FFFFFF" transform="translate(187,2)"/>
<path d="M0 0 C4.10958767 1.45044271 7.43258745 3.51110752 11 6 C10.67 6.99 10.34 7.98 10 9 C9.34 9 8.68 9 8 9 C7.8453125 9.86625 7.8453125 9.86625 7.6875 10.75 C7 13 7 13 4 17 C0.7 14.69 -2.6 12.38 -6 10 C-5.67 9.01 -5.34 8.02 -5 7 C-2.69 7.33 -0.38 7.66 2 8 C1.01 5.69 0.02 3.38 -1 1 C-0.67 0.67 -0.34 0.34 0 0 Z " fill="#FFFFFF" transform="translate(39,211)"/>
<path d="M0 0 C4.10958767 1.45044271 7.43258745 3.51110752 11 6 C9.25 10.875 9.25 10.875 7 12 C6.01 11.67 5.02 11.34 4 11 C4 12.32 4 13.64 4 15 C3.7018576 16.34164079 3.37756808 17.67851173 3 19 C2.34 19 1.68 19 1 19 C-3 12.25 -3 12.25 -3 10 C-3.66 9.67 -4.32 9.34 -5 9 C-4.67 8.01 -4.34 7.02 -4 6 C-1.36 6.33 1.28 6.66 4 7 C2.35 5.02 0.7 3.04 -1 1 C-0.67 0.67 -0.34 0.34 0 0 Z " fill="#FFFFFF" transform="translate(63,177)"/>
<path d="M0 0 C2.01822917 0.06510417 4.03645833 0.13020833 6.0546875 0.1953125 C6.7146875 3.1653125 7.3746875 6.1353125 8.0546875 9.1953125 C6.55729167 10.43229167 5.05989583 11.66927083 3.5625 12.90625 C2.34417589 13.94782242 1.18808653 15.06191347 0.0546875 16.1953125 C-0.9453125 15.1953125 -0.9453125 15.1953125 -1.0078125 12.6328125 C-0.9871875 11.8284375 -0.9665625 11.0240625 -0.9453125 10.1953125 C-1.9353125 9.8653125 -2.9253125 9.5353125 -3.9453125 9.1953125 C-4.0703125 5.8203125 -4.0703125 5.8203125 -3.9453125 2.1953125 C-1.9453125 0.1953125 -1.9453125 0.1953125 0 0 Z " fill="#097987" transform="translate(15.9453125,134.8046875)"/>
<path d="M0 0 C4.28477792 2.30718811 7.72291137 4.32966073 11 8 C10.01 9.32 9.02 10.64 8 12 C6.68 11.67 5.36 11.34 4 11 C3.17361624 13.89234315 3 15.88742431 3 19 C2.34 19.33 1.68 19.66 1 20 C-0.035969 18.42652824 -1.05331732 16.84078454 -2.0625 15.25 C-2.63097656 14.36828125 -3.19945312 13.4865625 -3.78515625 12.578125 C-5 10 -5 10 -4.68359375 7.671875 C-4.45800781 7.12015625 -4.23242188 6.5684375 -4 6 C-1.36 6.33 1.28 6.66 4 7 C2.35 5.68 0.7 4.36 -1 3 C-0.67 2.01 -0.34 1.02 0 0 Z M-1 10 C-0.34 10.66 0.32 11.32 1 12 C1 11.34 1 10.68 1 10 C0.34 10 -0.32 10 -1 10 Z " fill="#FFFFFF" transform="translate(54,13)"/>
<path d="M0 0 C3.63 2.31 7.26 4.62 11 7 C10.01 8.485 10.01 8.485 9 10 C8.67 10.99 8.34 11.98 8 13 C7.01 13.33 6.02 13.66 5 14 C5 14.66 5 15.32 5 16 C0.4926374 15.46972205 -2.4539073 13.80388725 -6 11 C-6 10.01 -6 9.02 -6 8 C-3 7 -3 7 1 7 C0.34 6.01 -0.32 5.02 -1 4 C-0.67 2.68 -0.34 1.36 0 0 Z " fill="#FFFFFF" transform="translate(81,240)"/>
<path d="M0 0 C1.51056694 0.89914699 3.00825429 1.81996101 4.5 2.75 C5.3353125 3.26046875 6.170625 3.7709375 7.03125 4.296875 C7.6809375 4.85890625 8.330625 5.4209375 9 6 C9 10 9 10 7.0625 12.0625 C6.381875 12.701875 5.70125 13.34125 5 14 C4.67 14.99 4.34 15.98 4 17 C-0.28477792 14.69281189 -3.72291137 12.67033927 -7 9 C-5.3125 7.875 -5.3125 7.875 -3 7 C-0.25 7.875 -0.25 7.875 2 9 C1.484375 8.2575 0.96875 7.515 0.4375 6.75 C-1 4 -1 4 -0.58984375 1.828125 C-0.39519531 1.22484375 -0.20054687 0.6215625 0 0 Z " fill="#FFFFFF" transform="translate(239,195)"/>
<path d="M0 0 C3.15330554 0.60694155 5.18888867 1.6416665 7.75 3.5625 C8.67039062 4.24505859 8.67039062 4.24505859 9.609375 4.94140625 C10.29773438 5.46541016 10.29773438 5.46541016 11 6 C10 9 10 9 9 10 C8.67 10.99 8.34 11.98 8 13 C7.01 13 6.02 13 5 13 C5 14.32 5 15.64 5 17 C3.51180543 16.0980639 2.03467187 15.17785871 0.5625 14.25 C-0.26121094 13.73953125 -1.08492188 13.2290625 -1.93359375 12.703125 C-4.21744593 10.8207818 -4.65514457 9.8842454 -5 7 C-2.69 7 -0.38 7 2 7 C1.34 6.01 0.68 5.02 0 4 C0 2.68 0 1.36 0 0 Z " fill="#FFFFFF" transform="translate(71,77)"/>
<path d="M0 0 C4.28477792 2.30718811 7.72291137 4.32966073 11 8 C9.75 10 9.75 10 8 12 C6.68 12 5.36 12 4 12 C2.78918149 15.10540926 2.78918149 15.10540926 3 19 C-0.43970626 17.85343125 -0.8782229 17.15481722 -2.75 14.1875 C-3.19859375 13.50042969 -3.6471875 12.81335938 -4.109375 12.10546875 C-5 10 -5 10 -4 6 C0.455 6.99 0.455 6.99 5 8 C3.15677615 6.15677615 1.03834872 4.62022591 -1 3 C-0.67 2.01 -0.34 1.02 0 0 Z M-1 10 C-0.34 10.66 0.32 11.32 1 12 C1 11.34 1 10.68 1 10 C0.34 10 -0.32 10 -1 10 Z " fill="#FFFFFF" transform="translate(147,236)"/>
<path d="M0 0 C3.59412911 1.33496224 6.92170156 2.69127617 10 5 C11.06716381 7.7746259 11.14189581 9.36146884 10.5 12.25 C9 14 9 14 5.8125 15.125 C1.11009278 14.97082271 -0.37166016 13.63633203 -3.71484375 10.54296875 C-5 9 -5 9 -5 7 C-2.36 7.33 0.28 7.66 3 8 C2.505 7.236875 2.01 6.47375 1.5 5.6875 C0 3 0 3 0 0 Z M5 6 C5.33 6.66 5.66 7.32 6 8 C6.66 7.67 7.32 7.34 8 7 C7.01 6.67 6.02 6.34 5 6 Z " fill="#FEF39C" transform="translate(114,108)"/>
<path d="M0 0 C4.28477792 2.30718811 7.72291137 4.32966073 11 8 C10.01 8.66 9.02 9.32 8 10 C7.67 10.99 7.34 11.98 7 13 C6.01 13.495 6.01 13.495 5 14 C4.67 14.99 4.34 15.98 4 17 C2.32572385 16.07615834 0.66071997 15.13549431 -1 14.1875 C-2.3921875 13.40439453 -2.3921875 13.40439453 -3.8125 12.60546875 C-4.534375 12.07566406 -5.25625 11.54585937 -6 11 C-6 10.01 -6 9.02 -6 8 C-3 7 -3 7 1 7 C0.34 6.01 -0.32 5.02 -1 4 C-0.625 1.8125 -0.625 1.8125 0 0 Z " fill="#FFFFFF" transform="translate(30,47)"/>
<path d="M0 0 C0.61488281 0.22816406 1.22976562 0.45632812 1.86328125 0.69140625 C2.67152344 0.97886719 3.47976562 1.26632813 4.3125 1.5625 C5.51326172 1.99755859 5.51326172 1.99755859 6.73828125 2.44140625 C9.1433174 3.24915625 9.1433174 3.24915625 12 2 C11.38545304 5.99455527 9.29353263 8.74466336 7 12 C4.525 11.01 4.525 11.01 2 10 C2 11.32 2 12.64 2 14 C2.66 14.66 3.32 15.32 4 16 C3.01 16.66 2.02 17.32 1 18 C-0.32 16.35 -1.64 14.7 -3 13 C-2.34 11.35 -1.68 9.7 -1 8 C-1.66 7.34 -2.32 6.68 -3 6 C-3 5.01 -3 4.02 -3 3 C-2.01 3 -1.02 3 0 3 C0 2.01 0 1.02 0 0 Z " fill="#F7FAFB" transform="translate(38,126)"/>
<path d="M0 0 C3.58786447 1.65593745 6.83783588 3.62837691 10 6 C10 9 10 9 8.6875 10.6875 C7 12 7 12 4 12 C3.34 13.65 2.68 15.3 2 17 C1.34 17 0.68 17 0 17 C-1.2890625 15.609375 -1.2890625 15.609375 -2.625 13.75 C-3.07101563 13.14671875 -3.51703125 12.5434375 -3.9765625 11.921875 C-5 10 -5 10 -5 6 C-1.7 6.33 1.6 6.66 5 7 C4.175 6.401875 3.35 5.80375 2.5 5.1875 C1.675 4.465625 0.85 3.74375 0 3 C0 2.01 0 1.02 0 0 Z " fill="#FEFEFE" transform="translate(221,132)"/>
<path d="M0 0 C2 3 2 3 1.5625 5.625 C1.376875 6.40875 1.19125 7.1925 1 8 C1.33 8.33 1.66 8.66 2 9 C2.07313567 11.53049402 2.09247527 14.03304837 2.0625 16.5625 C2.05798828 17.27341797 2.05347656 17.98433594 2.04882812 18.71679688 C2.03700864 20.47790013 2.01907263 22.23896036 2 24 C0.35 24 -1.3 24 -3 24 C-3 22 -3 22 -2 21 C-2.99 21 -3.98 21 -5 21 C-5.33 19.35 -5.66 17.7 -6 16 C-5.01 15.67 -4.02 15.34 -3 15 C-3.01160156 14.39671875 -3.02320313 13.7934375 -3.03515625 13.171875 C-3.04869141 11.97304687 -3.04869141 11.97304687 -3.0625 10.75 C-3.07410156 9.96109375 -3.08570313 9.1721875 -3.09765625 8.359375 C-3.00385306 6.09308998 -2.63241063 4.1711105 -2 2 C-1.34 2 -0.68 2 0 2 C0 1.34 0 0.68 0 0 Z " fill="#E0D610" transform="translate(34,72)"/>
<path d="M0 0 C1.9375 1.0625 1.9375 1.0625 3 3 C2.55555556 9.44444444 2.55555556 9.44444444 1 11 C-2.375 11.3125 -2.375 11.3125 -6 11 C-8.44658223 8.8691058 -8.91839227 7.57125412 -9.375 4.375 C-9.25125 3.59125 -9.1275 2.8075 -9 2 C-5.53076119 -0.31282587 -4.07794425 -0.42478586 0 0 Z " fill="#FEF07D" transform="translate(111,120)"/>
<path d="M0 0 C0.61875 0.226875 1.2375 0.45375 1.875 0.6875 C4.30297311 0.6875 6.50407005 0.18664315 8.875 -0.3125 C9.9076802 2.47573655 9.92009293 3.5552274 8.9375 6.4375 C8.586875 7.18 8.23625 7.9225 7.875 8.6875 C6.225 8.6875 4.575 8.6875 2.875 8.6875 C2.875 8.0275 2.875 7.3675 2.875 6.6875 C2.215 6.6875 1.555 6.6875 0.875 6.6875 C0.875 7.3475 0.875 8.0075 0.875 8.6875 C-1.12454746 8.73004356 -3.12541636 8.72830783 -5.125 8.6875 C-6.125 7.6875 -6.125 7.6875 -6.4375 5.3125 C-6.125 2.6875 -6.125 2.6875 -4.375 0.8125 C-2.125 -0.3125 -2.125 -0.3125 0 0 Z M-2.125 2.6875 C-2.455 4.0075 -2.785 5.3275 -3.125 6.6875 C-2.465 5.3675 -1.805 4.0475 -1.125 2.6875 C-1.455 2.6875 -1.785 2.6875 -2.125 2.6875 Z " fill="#37BFD4" transform="translate(72.125,147.3125)"/>
<path d="M0 0 C0.8971875 0.309375 0.8971875 0.309375 1.8125 0.625 C1.4825 3.265 1.1525 5.905 0.8125 8.625 C-2.8175 8.625 -6.4475 8.625 -10.1875 8.625 C-10.1875 7.635 -10.1875 6.645 -10.1875 5.625 C-10.8475 5.625 -11.5075 5.625 -12.1875 5.625 C-12.1875 6.615 -12.1875 7.605 -12.1875 8.625 C-13.1775 8.625 -14.1675 8.625 -15.1875 8.625 C-14.8575 5.985 -14.5275 3.345 -14.1875 0.625 C-13.1975 0.625 -12.2075 0.625 -11.1875 0.625 C-11.1875 1.285 -11.1875 1.945 -11.1875 2.625 C-10.5275 2.625 -9.8675 2.625 -9.1875 2.625 C-9.1875 1.965 -9.1875 1.305 -9.1875 0.625 C-8.589375 0.83125 -7.99125 1.0375 -7.375 1.25 C-4.05749207 1.81871565 -3.31750793 -0.56871565 0 0 Z M-2.1875 2.625 C-2.1875 5.625 -2.1875 5.625 -2.1875 5.625 Z " fill="#47C3D7" transform="translate(210.1875,147.375)"/>
<path d="M0 0 C4.59306496 1.4859916 7.43569245 3.85014682 11 7 C10.67 7.66 10.34 8.32 10 9 C9.01 9 8.02 9 7 9 C7.99 10.485 7.99 10.485 9 12 C6.69 12 4.38 12 2 12 C1.67 12.66 1.34 13.32 1 14 C0.34 14 -0.32 14 -1 14 C-1 13.34 -1 12.68 -1 12 C-2.32 11.67 -3.64 11.34 -5 11 C-5 9.68 -5 8.36 -5 7 C0.75 7.875 0.75 7.875 3 9 C2.319375 8.2575 1.63875 7.515 0.9375 6.75 C-1 4 -1 4 -0.75 1.6875 C-0.5025 1.130625 -0.255 0.57375 0 0 Z " fill="#FDFEFE" transform="translate(155,136)"/>
<path d="M0 0 C0.7425 0.2475 1.485 0.495 2.25 0.75 C2.58 2.07 2.91 3.39 3.25 4.75 C4.9 4.75 6.55 4.75 8.25 4.75 C7.92 5.74 7.59 6.73 7.25 7.75 C5.27 7.75 3.29 7.75 1.25 7.75 C2.24 9.235 2.24 9.235 3.25 10.75 C3.25 11.74 3.25 12.73 3.25 13.75 C0.09669446 13.14305845 -1.93888867 12.1083335 -4.5 10.1875 C-5.11359375 9.73246094 -5.7271875 9.27742187 -6.359375 8.80859375 C-6.81828125 8.45925781 -7.2771875 8.10992187 -7.75 7.75 C-6.79836277 3.22972316 -5.17089585 -0.47008144 0 0 Z M-1.75 2.75 C-2.41 4.07 -3.07 5.39 -3.75 6.75 C-2.43 6.42 -1.11 6.09 0.25 5.75 C-0.08 4.76 -0.41 3.77 -0.75 2.75 C-1.08 2.75 -1.41 2.75 -1.75 2.75 Z " fill="#FFFFFF" transform="translate(114.75,198.25)"/>
<path d="M0 0 C2.125 0.9375 2.125 0.9375 4 2 C4 2.99 4 3.98 4 5 C5.65 5 7.3 5 9 5 C9 5.99 9 6.98 9 8 C7.02 8.33 5.04 8.66 3 9 C3.66 10.32 4.32 11.64 5 13 C4.34 13.66 3.68 14.32 3 15 C-0.3 12.69 -3.6 10.38 -7 8 C-5.06904938 4.13809876 -3.82753337 1.91376669 0 0 Z M-1 4 C-1.99 5.485 -1.99 5.485 -3 7 C-2.01 7.33 -1.02 7.66 0 8 C0.33 6.68 0.66 5.36 1 4 C0.34 4 -0.32 4 -1 4 Z " fill="#FFFFFF" transform="translate(104,34)"/>
<path d="M0 0 C0.556875 0.391875 1.11375 0.78375 1.6875 1.1875 C1.6875 2.1775 1.6875 3.1675 1.6875 4.1875 C3.3375 4.5175 4.9875 4.8475 6.6875 5.1875 C5.6975 6.6725 5.6975 6.6725 4.6875 8.1875 C3.0375 7.8575 1.3875 7.5275 -0.3125 7.1875 C0.6775 8.8375 1.6675 10.4875 2.6875 12.1875 C1.6975 12.8475 0.7075 13.5075 -0.3125 14.1875 C-3.2825 11.8775 -6.2525 9.5675 -9.3125 7.1875 C-7.3125 2.1875 -7.3125 2.1875 -4.9375 0.25 C-2.3125 -0.8125 -2.3125 -0.8125 0 0 Z M-4.3125 3.1875 C-4.6425 4.1775 -4.9725 5.1675 -5.3125 6.1875 C-4.3225 6.5175 -3.3325 6.8475 -2.3125 7.1875 C-1.9825 5.8675 -1.6525 4.5475 -1.3125 3.1875 C-2.3025 3.1875 -3.2925 3.1875 -4.3125 3.1875 Z " fill="#FFFFFF" transform="translate(74.3125,168.8125)"/>
<path d="M0 0 C-0.33 2.64 -0.66 5.28 -1 8 C-1.639375 7.814375 -2.27875 7.62875 -2.9375 7.4375 C-3.9584375 7.2209375 -3.9584375 7.2209375 -5 7 C-5.33 7.33 -5.66 7.66 -6 8 C-7.99954746 8.04254356 -10.00041636 8.04080783 -12 8 C-12.66 8 -13.32 8 -14 8 C-14.99 8 -15.98 8 -17 8 C-16.34 5.36 -15.68 2.72 -15 0 C-12.02148438 0.04882812 -12.02148438 0.04882812 -9.04296875 0.09765625 C-0.93427835 -0.28994845 -0.93427835 -0.28994845 0 0 Z M-12 2 C-11 4 -11 4 -11 4 Z M-8 3 C-8 6 -8 6 -8 6 Z " fill="#4FC5D8" transform="translate(193,148)"/>
<path d="M0 0 C1.65 0.33 3.3 0.66 5 1 C5.33 2.32 5.66 3.64 6 5 C7.65 5 9.3 5 11 5 C10.67 5.99 10.34 6.98 10 8 C8.35 8.33 6.7 8.66 5 9 C5.66 10.32 6.32 11.64 7 13 C6.01 13.33 5.02 13.66 4 14 C1.73828125 12.78515625 1.73828125 12.78515625 -0.6875 11.0625 C-1.49574219 10.49660156 -2.30398437 9.93070313 -3.13671875 9.34765625 C-3.75160156 8.90292969 -4.36648437 8.45820312 -5 8 C-4.1875 5.5625 -4.1875 5.5625 -3 3 C-2.01 2.67 -1.02 2.34 0 2 C0 1.34 0 0.68 0 0 Z M1 3 C0.01 4.485 0.01 4.485 -1 6 C0.485 6.99 0.485 6.99 2 8 C2.33 6.35 2.66 4.7 3 3 C2.34 3 1.68 3 1 3 Z " fill="#FFFFFF" transform="translate(144,64)"/>
<path d="M0 0 C0.66 0.99 1.32 1.98 2 3 C4.05003955 4.19232613 4.05003955 4.19232613 6 5 C5.34 5.66 4.68 6.32 4 7 C2.68 7 1.36 7 0 7 C0.33 8.65 0.66 10.3 1 12 C-3.37451315 12 -4.00472003 11.59622397 -7.25 9 C-7.95640625 8.443125 -8.6628125 7.88625 -9.390625 7.3125 C-10.18726563 6.6628125 -10.18726563 6.6628125 -11 6 C-6.01785714 -1.80535714 -6.01785714 -1.80535714 0 0 Z M-5 2 C-5 3.32 -5 4.64 -5 6 C-4.34 6 -3.68 6 -3 6 C-3 4.68 -3 3.36 -3 2 C-3.66 2 -4.32 2 -5 2 Z " fill="#FFFFFF" transform="translate(66,6)"/>
<path d="M0 0 C1.625 1.4375 1.625 1.4375 3 3 C3.99 3.66 4.98 4.32 6 5 C3.38058783 6.74627478 1.96175123 7.38722388 -1 8 C-0.34 9.32 0.32 10.64 1 12 C-3.37451315 12 -4.00472003 11.59622397 -7.25 9 C-7.95640625 8.443125 -8.6628125 7.88625 -9.390625 7.3125 C-10.18726563 6.6628125 -10.18726563 6.6628125 -11 6 C-6.04153913 -1.76825536 -6.04153913 -1.76825536 0 0 Z M-5 2 C-5 3.32 -5 4.64 -5 6 C-4.34 6 -3.68 6 -3 6 C-2.67 5.01 -2.34 4.02 -2 3 C-2.99 2.67 -3.98 2.34 -5 2 Z " fill="#FFFFFF" transform="translate(159,229)"/>
<path d="M0 0 C1.65 0 3.3 0 5 0 C5.19720979 3.58286819 5.38107522 7.16630057 5.5625 10.75 C5.61857422 11.76578125 5.67464844 12.7815625 5.73242188 13.828125 C5.78076172 14.8078125 5.82910156 15.7875 5.87890625 16.796875 C5.9260376 17.69760742 5.97316895 18.59833984 6.02172852 19.52636719 C6.00063396 21.92782834 5.89270172 23.76871603 5 26 C4.01 26.33 3.02 26.66 2 27 C2.02320313 26.10796875 2.04640625 25.2159375 2.0703125 24.296875 C2.09738281 22.54117188 2.09738281 22.54117188 2.125 20.75 C2.14820313 19.58984375 2.17140625 18.4296875 2.1953125 17.234375 C2.00333549 14.05523577 1.4328682 12.73140501 0 10 C-0.1953125 7.421875 -0.1953125 7.421875 -0.125 4.75 C-0.09792969 3.41195312 -0.09792969 3.41195312 -0.0703125 2.046875 C-0.04710938 1.37140625 -0.02390625 0.6959375 0 0 Z " fill="#E5D80D" transform="translate(29,122)"/>
<path d="M0 0 C2.375 0.9375 2.375 0.9375 4.375 3.9375 C6.42503955 5.12982613 6.42503955 5.12982613 8.375 5.9375 C7.715 6.5975 7.055 7.2575 6.375 7.9375 C5.055 7.9375 3.735 7.9375 2.375 7.9375 C2.045 8.5975 1.715 9.2575 1.375 9.9375 C2.035 10.2675 2.695 10.5975 3.375 10.9375 C-1.29961851 11.26363618 -3.79174383 10.64332788 -7.625 7.9375 C-7.23594382 5.21410672 -6.55762433 3.84846786 -4.875 1.625 C-2.625 -0.0625 -2.625 -0.0625 0 0 Z M-2.625 2.9375 C-2.955 3.9275 -3.285 4.9175 -3.625 5.9375 C-2.305 5.9375 -0.985 5.9375 0.375 5.9375 C0.375 4.9475 0.375 3.9575 0.375 2.9375 C-0.615 2.9375 -1.605 2.9375 -2.625 2.9375 Z " fill="#FFFFFF" transform="translate(188.625,94.0625)"/>
<path d="M0 0 C0.98226562 0.01546875 1.96453125 0.0309375 2.9765625 0.046875 C5.375 0.25 5.375 0.25 6.375 1.25 C6.41563832 2.91617115 6.417721 4.58388095 6.375 6.25 C5.611875 6.085 4.84875 5.92 4.0625 5.75 C-0.24131916 4.94928946 -2.66630832 5.56755604 -6.625 7.25 C-7.615 7.58 -8.605 7.91 -9.625 8.25 C-9.27523023 5.66170373 -8.97681728 3.7379302 -7.43359375 1.59765625 C-4.90789394 -0.28434469 -3.11302215 -0.08213779 0 0 Z " fill="#D2D017" transform="translate(35.625,96.75)"/>
<path d="M0 0 C2.0245738 1.93254772 3.42105792 3.63158688 5 6 C8.06556598 6.73343428 8.06556598 6.73343428 11 7 C9.6875 8.5 9.6875 8.5 8 10 C7.01 10 6.02 10 5 10 C5.3403125 10.8971875 5.3403125 10.8971875 5.6875 11.8125 C5.790625 12.534375 5.89375 13.25625 6 14 C4.5625 15.75 4.5625 15.75 3 17 C2.731875 15.865625 2.46375 14.73125 2.1875 13.5625 C1.795625 12.386875 1.40375 11.21125 1 10 C0.01 9.67 -0.98 9.34 -2 9 C-2.20140476 5.37471432 -1.85776765 3.13498292 0 0 Z " fill="#F2F4D4" transform="translate(48,110)"/>
<path d="M0 0 C1.65 0.33 3.3 0.66 5 1 C5 1.99 5 2.98 5 4 C5.99 3.01 6.98 2.02 8 1 C8.66 2.32 9.32 3.64 10 5 C10.66 5 11.32 5 12 5 C12.33 3.68 12.66 2.36 13 1 C13.04254356 2.99954746 13.04080783 5.00041636 13 7 C12 8 12 8 9.93359375 8.09765625 C9.10988281 8.08605469 8.28617188 8.07445312 7.4375 8.0625 C6.61121094 8.05347656 5.78492187 8.04445312 4.93359375 8.03515625 C4.29550781 8.02355469 3.65742187 8.01195312 3 8 C3 7.34 3 6.68 3 6 C2.34 6 1.68 6 1 6 C1 6.66 1 7.32 1 8 C0.34 8 -0.32 8 -1 8 C-1.125 2.25 -1.125 2.25 0 0 Z " fill="#37BED3" transform="translate(100,148)"/>
<path d="M0 0 C2.375 -0.125 2.375 -0.125 5 0 C7 2 7 2 7.3125 4.875 C6.9736202 8.26379801 6.27183419 9.53884629 4 12 C2.35 11.67 0.7 11.34 -1 11 C-1.33 10.01 -1.66 9.02 -2 8 C-1 6.33333333 0 4.66666667 1 3 C0.67 2.01 0.34 1.02 0 0 Z M2 6 C2.33 7.32 2.66 8.64 3 10 C3.33 8.68 3.66 7.36 4 6 C3.34 6 2.68 6 2 6 Z " fill="#52C9D9" transform="translate(170,144)"/>
<path d="M0 0 C3.375 -0.1875 3.375 -0.1875 7 0 C7.66 0.99 8.32 1.98 9 3 C10.670625 3.4021875 10.670625 3.4021875 12.375 3.8125 C16.8517589 5.27902447 17.80099751 6.94030309 20 11 C20.33 11.66 20.66 12.32 21 13 C18.75 13.3125 18.75 13.3125 16 13 C14.63823078 11.35648543 13.31037934 9.68477344 12 8 C8.23037153 5.25277594 4.18451495 3.0455553 0 1 C0 0.67 0 0.34 0 0 Z " fill="#E9DA0B" transform="translate(28,159)"/>
<path d="M0 0 C0.99 0 1.98 0 3 0 C3 0.99 3 1.98 3 3 C2.01 3.66 1.02 4.32 0 5 C0 5.99 0 6.98 0 8 C2.475 8.99 2.475 8.99 5 10 C5.33 9.01 5.66 8.02 6 7 C6.99 7 7.98 7 9 7 C8.088524 10.14873527 7.48072345 11.66616427 4.75 13.5625 C2 14 2 14 -1.3125 12.4375 C-4 10 -4 10 -4.625 7.5625 C-3.80768502 4.21150856 -2.42547354 2.42547354 0 0 Z " fill="#FFFFFF" transform="translate(99,128)"/>
<path d="M0 0 C0.99 0 1.98 0 3 0 C3.66 1.65 4.32 3.3 5 5 C6.65 5 8.3 5 10 5 C10 6.32 10 7.64 10 9 C8.35 8.67 6.7 8.34 5 8 C5.33 8.99 5.66 9.98 6 11 C2.30099992 10.11223998 -1.34550461 9.05418136 -5 8 C-4.67 7.34 -4.34 6.68 -4 6 C-2.35 6 -0.7 6 1 6 C0.67 4.02 0.34 2.04 0 0 Z " fill="#FFFFFF" transform="translate(15,245)"/>
<path d="M0 0 C1.32 0.66 2.64 1.32 4 2 C4.66 1.34 5.32 0.68 6 0 C8.1640625 -0.1953125 8.1640625 -0.1953125 10.625 -0.125 C11.85089844 -0.09792969 11.85089844 -0.09792969 13.1015625 -0.0703125 C14.04128906 -0.03550781 14.04128906 -0.03550781 15 0 C14.67 1.32 14.34 2.64 14 4 C11.525 3.01 11.525 3.01 9 2 C8.67 2.99 8.34 3.98 8 5 C8.99 5.99 9.98 6.98 11 8 C10.34 8.66 9.68 9.32 9 10 C5.7 7.69 2.4 5.38 -1 3 C-0.67 2.01 -0.34 1.02 0 0 Z " fill="#FFFFFF" transform="translate(63,0)"/>
<path d="M0 0 C0.66 0 1.32 0 2 0 C2.66 1.98 3.32 3.96 4 6 C5.65 6 7.3 6 9 6 C9 6.99 9 7.98 9 9 C3.61509359 9.91657981 -1.54230189 10.11138159 -7 10 C-6.34 9.67 -5.68 9.34 -5 9 C-4.67 8.01 -4.34 7.02 -4 6 C-1.9375 5.3125 -1.9375 5.3125 0 5 C-0.2784375 4.0409375 -0.2784375 4.0409375 -0.5625 3.0625 C-0.706875 2.381875 -0.85125 1.70125 -1 1 C-0.67 0.67 -0.34 0.34 0 0 Z " fill="#FFFFFF" transform="translate(247,95)"/>
<path d="M0 0 C4.455 0.99 4.455 0.99 9 2 C8.20197185 5.1921126 7.25768711 7.98155093 6 11 C5.34 11 4.68 11 4 11 C4 10.34 4 9.68 4 9 C3.34 9 2.68 9 2 9 C0.3125 6.75 0.3125 6.75 -1 4 C-0.67 2.68 -0.34 1.36 0 0 Z M4 4 C5 6 5 6 5 6 Z " fill="#FFFEFE" transform="translate(175,108)"/>
<path d="M0 0 C2.31 0.33 4.62 0.66 7 1 C7 4.96 7 8.92 7 13 C6.34 13 5.68 13 5 13 C1 6.25 1 6.25 1 4 C0.34 4 -0.32 4 -1 4 C-0.67 2.68 -0.34 1.36 0 0 Z " fill="#FFFFFF" transform="translate(249,4)"/>
<path d="M0 0 C3.37503669 1.1858237 5.64722731 2.27573689 8 5 C7.25 7.4375 7.25 7.4375 6 10 C4 10.875 4 10.875 2 11 C1.34 10.67 0.68 10.34 0 10 C0 6.7 0 3.4 0 0 Z " fill="#FFFFFF" transform="translate(0,183)"/>
<path d="M0 0 C1.32 0 2.64 0 4 0 C2.68197635 3.64991166 1.40785992 5.7895201 -1 9 C-4.3 8.34 -7.6 7.68 -11 7 C-10.34 5.68 -9.68 4.36 -9 3 C-4.25 3.875 -4.25 3.875 -2 5 C-1.34 3.35 -0.68 1.7 0 0 Z " fill="#509B88" transform="translate(54,121)"/>
<path d="M0 0 C0.98484375 0.11988281 1.9696875 0.23976562 2.984375 0.36328125 C3.73203125 0.47027344 4.4796875 0.57726562 5.25 0.6875 C3.765 3.1625 3.765 3.1625 2.25 5.6875 C0.62419034 5.57351335 -1.00067157 5.44594341 -2.625 5.3125 C-3.52992187 5.24289063 -4.43484375 5.17328125 -5.3671875 5.1015625 C-7.75 4.6875 -7.75 4.6875 -9.75 2.6875 C-6.40914528 -0.40676782 -4.45291069 -0.58311926 0 0 Z " fill="#A3BB31" transform="translate(45.75,149.3125)"/>
<path d="M0 0 C2.86724686 0.57344937 3.8614515 0.8614515 6 3 C6.99 3 7.98 3 9 3 C9.33 2.01 9.66 1.02 10 0 C11.32 0.33 12.64 0.66 14 1 C11.71052632 6.6634349 11.71052632 6.6634349 8.625 8.125 C4.94294861 7.94966422 3.53359384 6.60397145 1 4 C0.1875 1.75 0.1875 1.75 0 0 Z " fill="#FFFFFF" transform="translate(127,0)"/>
<path d="M0 0 C-0.33 1.98 -0.66 3.96 -1 6 C-1.66 6 -2.32 6 -3 6 C-3 6.66 -3 7.32 -3 8 C-5.31 8 -7.62 8 -10 8 C-9.9375 5.6875 -9.9375 5.6875 -9 3 C-3.31034483 0 -3.31034483 0 0 0 Z " fill="#F2DD06" transform="translate(36,103)"/>
<path d="M0 0 C0.33 0.99 0.66 1.98 1 3 C2.98 2.01 4.96 1.02 7 0 C7.66 0.66 8.32 1.32 9 2 C11.06874034 2.6425235 11.06874034 2.6425235 13 3 C13.33 2.01 13.66 1.02 14 0 C14.33 1.98 14.66 3.96 15 6 C9.25 7.125 9.25 7.125 7 6 C7 5.01 7 4.02 7 3 C3.7 4.32 0.4 5.64 -3 7 C-3 6.34 -3 5.68 -3 5 C-2.34 4.67 -1.68 4.34 -1 4 C-0.34786708 1.97536745 -0.34786708 1.97536745 0 0 Z " fill="#398D6D" transform="translate(29,100)"/>
<path d="M0 0 C0.8971875 0.309375 0.8971875 0.309375 1.8125 0.625 C0.04334525 1.60719627 -1.72788569 2.58565359 -3.5 3.5625 C-4.48613281 4.10777344 -5.47226562 4.65304688 -6.48828125 5.21484375 C-9.1875 6.625 -9.1875 6.625 -12.1875 7.625 C-12.92073796 9.64008358 -12.92073796 9.64008358 -13.1875 11.625 C-14.6875 10.4375 -14.6875 10.4375 -16.1875 8.625 C-16.28125 6.01171875 -16.28125 6.01171875 -16.1875 3.625 C-15.42824219 3.50382813 -14.66898438 3.38265625 -13.88671875 3.2578125 C-12.39591797 3.00644531 -12.39591797 3.00644531 -10.875 2.75 C-9.88886719 2.58757812 -8.90273438 2.42515625 -7.88671875 2.2578125 C-4.74508523 1.52127903 -3.19735714 -0.54811837 0 0 Z " fill="#DFD937" transform="translate(38.1875,147.375)"/>
<path d="M0 0 C0.99 0.33 1.98 0.66 3 1 C3.33 2.65 3.66 4.3 4 6 C6.31 6 8.62 6 11 6 C10.67 6.99 10.34 7.98 10 9 C9.22914062 8.98839844 8.45828125 8.97679687 7.6640625 8.96484375 C6.66117188 8.95582031 5.65828125 8.94679687 4.625 8.9375 C3.12839844 8.92009766 3.12839844 8.92009766 1.6015625 8.90234375 C-0.98432453 8.81993398 -0.98432453 8.81993398 -3 10 C-3 9.34 -3 8.68 -3 8 C-3.66 7.67 -4.32 7.34 -5 7 C-3.02 6.67 -1.04 6.34 1 6 C0.67 4.02 0.34 2.04 0 0 Z " fill="#FDFEFE" transform="translate(89,140)"/>
<path d="M0 0 C4.70588235 0.70588235 4.70588235 0.70588235 6 2 C6.125 4.5 6.125 4.5 6 7 C5 8 5 8 2.5625 8.1875 C0 8 0 8 -2 6 C-1.44444444 1.44444444 -1.44444444 1.44444444 0 0 Z " fill="#FEE307" transform="translate(106,121)"/>
<path d="M0 0 C3.11373372 1.49920512 6.12228205 3.08152136 9 5 C9 5.66 9 6.32 9 7 C7.35 6.67 5.7 6.34 4 6 C3.67 7.32 3.34 8.64 3 10 C3.66 10.33 4.32 10.66 5 11 C4.67 11.99 4.34 12.98 4 14 C2.66102417 13.04956626 1.32894573 12.08940853 0 11.125 C-0.7425 10.59132813 -1.485 10.05765625 -2.25 9.5078125 C-3.11625 8.76144531 -3.11625 8.76144531 -4 8 C-4 7.34 -4 6.68 -4 6 C-2.68 6.33 -1.36 6.66 0 7 C0.66 5.68 1.32 4.36 2 3 C1.34 2.67 0.68 2.34 0 2 C0 1.34 0 0.68 0 0 Z " fill="#FDEC57" transform="translate(235,114)"/>
<path d="M0 0 C2.875 -0.1875 2.875 -0.1875 6 0 C8 3 8 3 8 6 C5.36 6.66 2.72 7.32 0 8 C0 5.36 0 2.72 0 0 Z " fill="#EDDB09" transform="translate(27,113)"/>
<path d="M0 0 C1.32 0 2.64 0 4 0 C4.22387853 3.91787427 3.44115183 6.39712042 2 10 C1.83201738 12.70886941 1.83201738 12.70886941 2 15 C1.731875 14.4225 1.46375 13.845 1.1875 13.25 C0.08979641 10.93194181 0.08979641 10.93194181 -1.75 9.125 C-3 7 -3 7 -2.25 3.8125 C-1 1 -1 1 0 0 Z " fill="#01758A" transform="translate(42,89)"/>
<path d="M0 0 C0.556875 0.185625 1.11375 0.37125 1.6875 0.5625 C4.399133 1.07551165 6.34371039 0.6640724 9 0 C8.67 2.64 8.34 5.28 8 8 C5.125 7.75 5.125 7.75 2 7 C0.13209062 4.45285085 0 3.19131 0 0 Z " fill="#36BFD3" transform="translate(116,148)"/>
<path d="M0 0 C0.33 0 0.66 0 1 0 C1 1.65 1 3.3 1 5 C2.65 4.67 4.3 4.34 6 4 C5.67 5.32 5.34 6.64 5 8 C6.32 8.33 7.64 8.66 9 9 C8.67 9.99 8.34 10.98 8 12 C4.8369962 10.91371587 1.85293363 9.75895156 -1 8 C-2.1875 4.875 -2.1875 4.875 -2 2 C-1.34 1.34 -0.68 0.68 0 0 Z " fill="#FEF293" transform="translate(225,126)"/>
<path d="M0 0 C2.31 0 4.62 0 7 0 C6.67 2.64 6.34 5.28 6 8 C5.01 8 4.02 8 3 8 C3 7.34 3 6.68 3 6 C2.01 6.33 1.02 6.66 0 7 C0 4.69 0 2.38 0 0 Z " fill="#3DBFD5" transform="translate(159,148)"/>
<path d="M0 0 C1.65 0 3.3 0 5 0 C4.34 1.98 3.68 3.96 3 6 C0.8125 6.3125 0.8125 6.3125 -2 6 C-4.8125 3.5 -4.8125 3.5 -7 1 C-4.69 1.33 -2.38 1.66 0 2 C0 1.34 0 0.68 0 0 Z " fill="#FDE309" transform="translate(120,116)"/>
<path d="M0 0 C1.66611905 -0.042721 3.33382885 -0.04063832 5 0 C6 1 6 1 6.0625 4.5625 C6.041875 5.696875 6.02125 6.83125 6 8 C5.67 7.34 5.34 6.68 5 6 C4.01 6 3.02 6 2 6 C2 7.65 2 9.3 2 11 C1.34 11 0.68 11 0 11 C0 8.69 0 6.38 0 4 C0.66 4 1.32 4 2 4 C2 3.34 2 2.68 2 2 C1.34 2 0.68 2 0 2 C0 1.34 0 0.68 0 0 Z " fill="#23B8CF" transform="translate(230,144)"/>
<path d="M0 0 C0.66 0 1.32 0 2 0 C2.33 1.98 2.66 3.96 3 6 C0.02588876 7.23921302 -2.85262818 8.30058404 -6 9 C-5.1875 6.5625 -5.1875 6.5625 -4 4 C-3.01 3.67 -2.02 3.34 -1 3 C-0.67 2.01 -0.34 1.02 0 0 Z " fill="#E7DA16" transform="translate(22,144)"/>
<path d="M0 0 C0.99 0.33 1.98 0.66 3 1 C4.37142857 10.14285714 4.37142857 10.14285714 3 13 C2.01 13.33 1.02 13.66 0 14 C0 9.38 0 4.76 0 0 Z " fill="#ECE03C" transform="translate(31,135)"/>
<path d="M0 0 C1.98 0 3.96 0 6 0 C5.67 2.31 5.34 4.62 5 7 C4.34 6.01 3.68 5.02 3 4 C2.34 5.32 1.68 6.64 1 8 C0.01 8 -0.98 8 -2 8 C-1.34 5.36 -0.68 2.72 0 0 Z " fill="#35BED3" transform="translate(178,148)"/>
<path d="M0 0 C2.31 0 4.62 0 7 0 C7.33 1.65 7.66 3.3 8 5 C1.25 5.125 1.25 5.125 -1 4 C-0.67 2.68 -0.34 1.36 0 0 Z " fill="#FDE50B" transform="translate(231,130)"/>
<path d="M0 0 C0.598125 0.20625 1.19625 0.4125 1.8125 0.625 C1.4825 2.935 1.1525 5.245 0.8125 7.625 C0.1525 7.625 -0.5075 7.625 -1.1875 7.625 C-1.5175 6.305 -1.8475 4.985 -2.1875 3.625 C-2.8475 3.625 -3.5075 3.625 -4.1875 3.625 C-4.1875 4.615 -4.1875 5.605 -4.1875 6.625 C-3.5275 6.955 -2.8675 7.285 -2.1875 7.625 C-3.1775 7.625 -4.1675 7.625 -5.1875 7.625 C-5.375 4.75 -5.375 4.75 -5.1875 1.625 C-2.1875 -0.375 -2.1875 -0.375 0 0 Z " fill="#2EBBD1" transform="translate(210.1875,147.375)"/>
<path d="M0 0 C1.45823212 -0.0270043 2.91660675 -0.04639787 4.375 -0.0625 C5.18710938 -0.07410156 5.99921875 -0.08570312 6.8359375 -0.09765625 C9 0 9 0 11 1 C11 1.66 11 2.32 11 3 C9.02 3 7.04 3 5 3 C5.66 3.45375 6.32 3.9075 7 4.375 C7.66 4.91125 8.32 5.4475 9 6 C9 6.66 9 7.32 9 8 C5.56247993 6.4722133 2.81046312 4.49818944 0 2 C0 1.34 0 0.68 0 0 Z " fill="#FDED5F" transform="translate(109,115)"/>
<path d="M0 0 C1.32 0.33 2.64 0.66 4 1 C4.125 6.75 4.125 6.75 3 9 C1.02 9 -0.96 9 -3 9 C-3 7.35 -3 5.7 -3 4 C-2.67 4.99 -2.34 5.98 -2 7 C-1.34 7 -0.68 7 0 7 C0 6.34 0 5.68 0 5 C0.66 5 1.32 5 2 5 C2 4.01 2 3.02 2 2 C1.34 2 0.68 2 0 2 C0 1.34 0 0.68 0 0 Z " fill="#35BED3" transform="translate(241,147)"/>
<path d="M0 0 C2 3 2 3 1.609375 5.19140625 C1.32578125 5.97386719 1.0421875 6.75632812 0.75 7.5625 C0.47671875 8.34753906 0.2034375 9.13257812 -0.078125 9.94140625 C-1 12 -1 12 -3 14 C-3.14285714 5.42857143 -3.14285714 5.42857143 -2 2 C-1.34 2 -0.68 2 0 2 C0 1.34 0 0.68 0 0 Z " fill="#AEC02C" transform="translate(34,72)"/>
<path d="M0 0 C1.32 0.66 2.64 1.32 4 2 C4 3.32 4 4.64 4 6 C3.34 6 2.68 6 2 6 C2.66 7.32 3.32 8.64 4 10 C2.02 9.34 0.04 8.68 -2 8 C-1.125 1.125 -1.125 1.125 0 0 Z " fill="#2A8773" transform="translate(34,66)"/>
<path d="M0 0 C1.01054862 3.03164585 1.0265912 4.51750751 0.6875 7.625 C0.60886719 8.42164062 0.53023437 9.21828125 0.44921875 10.0390625 C0.22685547 11.00972656 0.22685547 11.00972656 0 12 C-0.99 12.495 -0.99 12.495 -2 13 C-2.65555119 15.52733235 -2.65555119 15.52733235 -3 18 C-3.33 18 -3.66 18 -4 18 C-4.39873011 11.88613837 -3.12115707 6.73701549 -1 1 C-0.67 0.67 -0.34 0.34 0 0 Z " fill="#02758B" transform="translate(31,75)"/>
<path d="M0 0 C0.33 0 0.66 0 1 0 C1.125 3.375 1.125 3.375 1 7 C0.34 7.66 -0.32 8.32 -1 9 C-3.625 8.625 -3.625 8.625 -6 8 C-6.33 7.01 -6.66 6.02 -7 5 C-6.01 4.34 -5.02 3.68 -4 3 C-4 4.32 -4 5.64 -4 7 C-3.34 7 -2.68 7 -2 7 C-1.34 4.69 -0.68 2.38 0 0 Z " fill="#29BBD1" transform="translate(175,147)"/>
<path d="M0 0 C2.625 0.375 2.625 0.375 5 1 C4.8125 2.875 4.8125 2.875 4 5 C1.4375 6.25 1.4375 6.25 -1 7 C-1.625 4.625 -1.625 4.625 -2 2 C-1.34 1.34 -0.68 0.68 0 0 Z " fill="#46C4D7" transform="translate(77,147)"/>
<path d="M0 0 C1.66611905 -0.042721 3.33382885 -0.04063832 5 0 C6 1 6 1 6.0625 3.5625 C6.041875 4.366875 6.02125 5.17125 6 6 C4.35 5.67 2.7 5.34 1 5 C0.67 3.35 0.34 1.7 0 0 Z " fill="#F3DE05" transform="translate(36,97)"/>
<path d="M0 0 C2.0625 0.4375 2.0625 0.4375 4 1 C4.33 2.32 4.66 3.64 5 5 C3.02253397 5.73080266 1.01927511 6.39421747 -1 7 C-1.66 6.67 -2.32 6.34 -3 6 C-3 5.01 -3 4.02 -3 3 C-1.35 3 0.3 3 2 3 C1.01 2.34 0.02 1.68 -1 1 C-0.67 0.67 -0.34 0.34 0 0 Z " fill="#CCCD1B" transform="translate(16,136)"/>
<path d="M0 0 C1.98 0 3.96 0 6 0 C6 1.32 6 2.64 6 4 C5.34 4 4.68 4 4 4 C4 4.99 4 5.98 4 7 C3.34 7 2.68 7 2 7 C2 5.35 2 3.7 2 2 C1.34 2 0.68 2 0 2 C0 3.65 0 5.3 0 7 C-0.66 6.34 -1.32 5.68 -2 5 C-1.34 3.35 -0.68 1.7 0 0 Z " fill="#28BCD2" transform="translate(140,148)"/>
<path d="M0 0 C0.33 1.32 0.66 2.64 1 4 C-1.25 4.6875 -1.25 4.6875 -4 5 C-6.3125 3.5625 -6.3125 3.5625 -8 2 C-4.77208445 -0.1519437 -3.71599191 -0.20086443 0 0 Z " fill="#D2D441" transform="translate(23,157)"/>
<path d="M0 0 C1.32 0 2.64 0 4 0 C2.7580393 3.43927579 1.44259716 6.25207819 -1 9 C-1.66 9 -2.32 9 -3 9 C-2.30058404 5.85262818 -1.23921302 2.97411124 0 0 Z " fill="#04768D" transform="translate(54,121)"/>
<path d="M0 0 C2.375 0.6875 2.375 0.6875 5 2 C6.3125 4.625 6.3125 4.625 7 7 C3.64404172 6.40072174 1.62198774 5.15377564 -1 3 C-0.67 2.01 -0.34 1.02 0 0 Z " fill="#FFFEFE" transform="translate(179,102)"/>
<path d="M0 0 C0.66 1.32 1.32 2.64 2 4 C1.01 5.485 1.01 5.485 0 7 C-3.625 7.1875 -3.625 7.1875 -7 7 C-7.66 5.35 -8.32 3.7 -9 2 C-7.515 2.99 -7.515 2.99 -6 4 C-3.37468476 4.16713569 -3.37468476 4.16713569 -1 4 C-0.67 2.68 -0.34 1.36 0 0 Z " fill="#FEEB53" transform="translate(112,124)"/>
<path d="M0 0 C1.67542976 0.28604898 3.34385343 0.61781233 5 1 C5 1.99 5 2.98 5 4 C4.34 4 3.68 4 3 4 C3 4.66 3 5.32 3 6 C2.01 6 1.02 6 0 6 C-0.38218767 4.34385343 -0.71395102 2.67542976 -1 1 C-0.67 0.67 -0.34 0.34 0 0 Z " fill="#A5BC31" transform="translate(29,87)"/>
<path d="M0 0 C0.825 0.4125 1.65 0.825 2.5 1.25 C0.5 1.91666667 -1.5 2.58333333 -3.5 3.25 C-4.139375 3.641875 -4.77875 4.03375 -5.4375 4.4375 C-6.118125 4.705625 -6.79875 4.97375 -7.5 5.25 C-9.62890625 4.30078125 -9.62890625 4.30078125 -11.5 3.25 C-4.60284464 -0.98632385 -4.60284464 -0.98632385 0 0 Z " fill="#27877D" transform="translate(43.5,147.75)"/>
<path d="M0 0 C0.99 0.33 1.98 0.66 3 1 C2.67 3.31 2.34 5.62 2 8 C1.01 8 0.02 8 -1 8 C-1 7.01 -1 6.02 -1 5 C-1.66 4.67 -2.32 4.34 -3 4 C-2.67 3.34 -2.34 2.68 -2 2 C-1.34 2 -0.68 2 0 2 C0 1.34 0 0.68 0 0 Z " fill="#5ECBDB" transform="translate(147,148)"/>
<path d="M0 0 C3.625 0.1875 3.625 0.1875 7 1 C7.33 1.66 7.66 2.32 8 3 C4.37 3 0.74 3 -3 3 C-2.01 2.01 -1.02 1.02 0 0 Z " fill="#FFFFFF" transform="translate(73,253)"/>
<path d="M0 0 C1.9375 0.3125 1.9375 0.3125 4 1 C5 4 5 4 4.0625 6.1875 C3.5365625 7.0846875 3.5365625 7.0846875 3 8 C1.5 6.8125 1.5 6.8125 0 5 C-0.1875 2.3125 -0.1875 2.3125 0 0 Z " fill="#EEDF24" transform="translate(22,151)"/>
<path d="M0 0 C2.64 0 5.28 0 8 0 C8.66 2.97 9.32 5.94 10 9 C9.01 8.67 8.02 8.34 7 8 C5.8125 4.9375 5.8125 4.9375 5 2 C3.35 1.67 1.7 1.34 0 1 C0 0.67 0 0.34 0 0 Z " fill="#328A70" transform="translate(14,135)"/>
<path d="M0 0 C0.66 0 1.32 0 2 0 C2 2.97 2 5.94 2 9 C1.01 8.67 0.02 8.34 -1 8 C-1.8125 6.1875 -1.8125 6.1875 -2 4 C-1.0625 1.75 -1.0625 1.75 0 0 Z " fill="#FFFFFF" transform="translate(254,85)"/>
<path d="M0 0 C1.32 0 2.64 0 4 0 C4.33 1.98 4.66 3.96 5 6 C4.01 6 3.02 6 2 6 C2 5.01 2 4.02 2 3 C1.01 3 0.02 3 -1 3 C-0.67 2.01 -0.34 1.02 0 0 Z " fill="#ACE4EC" transform="translate(150,148)"/>
<path d="M0 0 C3.465 1.485 3.465 1.485 7 3 C7 3.66 7 4.32 7 5 C4.625 5.125 4.625 5.125 2 5 C1.34 4.34 0.68 3.68 0 3 C0 2.01 0 1.02 0 0 Z " fill="#20827A" transform="translate(35,158)"/>
<path d="M0 0 C-0.66 2.31 -1.32 4.62 -2 7 C-5 3.25 -5 3.25 -5 1 C-5.66 0.67 -6.32 0.34 -7 0 C-3.86650268 -1.04449911 -3.01031744 -0.93423645 0 0 Z " fill="#37BED2" transform="translate(193,148)"/>
<path d="M0 0 C0.99 0 1.98 0 3 0 C2.625 2.4375 2.625 2.4375 2 5 C1.01 5.495 1.01 5.495 0 6 C-0.66 5.67 -1.32 5.34 -2 5 C-1.125 1.125 -1.125 1.125 0 0 Z " fill="#FEE40D" transform="translate(228,126)"/>
<path d="M0 0 C2.475 0.99 2.475 0.99 5 2 C5 2.66 5 3.32 5 4 C6.32 4.33 7.64 4.66 9 5 C8.67 5.99 8.34 6.98 8 8 C6.66102417 7.04956626 5.32894573 6.08940853 4 5.125 C3.2575 4.59132813 2.515 4.05765625 1.75 3.5078125 C1.1725 3.01023437 0.595 2.51265625 0 2 C0 1.34 0 0.68 0 0 Z " fill="#FEEF72" transform="translate(231,120)"/>
<path d="M0 0 C0.66 1.32 1.32 2.64 2 4 C2.66 3.01 3.32 2.02 4 1 C4 2.65 4 4.3 4 6 C1.69 6 -0.62 6 -3 6 C-2.34 5.67 -1.68 5.34 -1 5 C-0.34444881 2.47266765 -0.34444881 2.47266765 0 0 Z " fill="#93DCE7" transform="translate(94,150)"/>
<path d="M0 0 C0.33 0.99 0.66 1.98 1 3 C1.66 3 2.32 3 3 3 C3 2.34 3 1.68 3 1 C3.99 1 4.98 1 6 1 C6 2.32 6 3.64 6 5 C4.02 5 2.04 5 0 5 C0 3.35 0 1.7 0 0 Z " fill="#2FBBD1" transform="translate(67,151)"/>
<path d="M0 0 C0.66 0 1.32 0 2 0 C2 2.31 2 4.62 2 7 C1.01 7.33 0.02 7.66 -1 8 C-1.125 2.25 -1.125 2.25 0 0 Z " fill="#3ABED5" transform="translate(126,148)"/>
<path d="M0 0 C0.99 0 1.98 0 3 0 C3 0.99 3 1.98 3 3 C0.69 4.32 -1.62 5.64 -4 7 C-2.92598892 4.08482708 -2.22189824 2.22189824 0 0 Z " fill="#FFFDEF" transform="translate(99,128)"/>
<path d="M0 0 C0.103125 0.639375 0.20625 1.27875 0.3125 1.9375 C0.539375 2.618125 0.76625 3.29875 1 4 C1.99 4.33 2.98 4.66 4 5 C3.67 5.99 3.34 6.98 3 8 C2.67 7.34 2.34 6.68 2 6 C-0.52733235 5.34444881 -0.52733235 5.34444881 -3 5 C-3 4.01 -3 3.02 -3 2 C-2.01 2 -1.02 2 0 2 C0 1.34 0 0.68 0 0 Z " fill="#5FA599" transform="translate(21,152)"/>
<path d="M0 0 C0.28875 0.61875 0.5775 1.2375 0.875 1.875 C1.93720042 4.13325765 1.93720042 4.13325765 4 6 C0.7 6 -2.6 6 -6 6 C-4.68 5.01 -3.36 4.02 -2 3 C-1.67 3.33 -1.34 3.66 -1 4 C-0.67 2.68 -0.34 1.36 0 0 Z " fill="#5CCADA" transform="translate(140,150)"/>
<path d="M0 0 C2.125 0.375 2.125 0.375 4 1 C3.67 1.99 3.34 2.98 3 4 C2.67 3.67 2.34 3.34 2 3 C1.01 4.485 1.01 4.485 0 6 C-0.99 6.495 -0.99 6.495 -2 7 C-2.125 4.625 -2.125 4.625 -2 2 C-1.34 1.34 -0.68 0.68 0 0 Z " fill="#4FC6D8" transform="translate(68,148)"/>
<path d="M0 0 C0.66 0 1.32 0 2 0 C2 0.66 2 1.32 2 2 C3.32 2.33 4.64 2.66 6 3 C3 4 3 4 0 3 C0.33 4.65 0.66 6.3 1 8 C0.34 8 -0.32 8 -1 8 C-1.04241723 5.66705225 -1.04092937 3.33297433 -1 1 C-0.67 0.67 -0.34 0.34 0 0 Z " fill="#1C807D" transform="translate(13,136)"/>
<path d="M0 0 C0.66 0.99 1.32 1.98 2 3 C2.66 2.67 3.32 2.34 4 2 C4.66 2.66 5.32 3.32 6 4 C5.01 4.33 4.02 4.66 3 5 C2.67 5.66 2.34 6.32 2 7 C1.01 7 0.02 7 -1 7 C-0.67 4.69 -0.34 2.38 0 0 Z " fill="#4FC7D9" transform="translate(212,152)"/>
<path d="M0 0 C0.99 0.33 1.98 0.66 3 1 C2.625 3.9375 2.625 3.9375 2 7 C1.01 7.495 1.01 7.495 0 8 C0 5.36 0 2.72 0 0 Z " fill="#28BCD2" transform="translate(213,148)"/>
<path d="M0 0 C1.65 0 3.3 0 5 0 C5.33 0.66 5.66 1.32 6 2 C5.01 3.485 5.01 3.485 4 5 C3.34 4.67 2.68 4.34 2 4 C2 3.34 2 2.68 2 2 C1.34 2 0.68 2 0 2 C0 1.34 0 0.68 0 0 Z " fill="#54C9DC" transform="translate(230,144)"/>
<path d="M0 0 C0.66 1.32 1.32 2.64 2 4 C1.01 5.485 1.01 5.485 0 7 C-0.99 6.67 -1.98 6.34 -3 6 C-2 4 -1 2 0 0 Z " fill="#FBFCFD" transform="translate(42,118)"/>
<path d="M0 0 C0.99 0.66 1.98 1.32 3 2 C3 2.66 3 3.32 3 4 C2.34 4 1.68 4 1 4 C1 4.66 1 5.32 1 6 C0.01 6 -0.98 6 -2 6 C-1.49396008 3.83125748 -1.00016187 2.00032373 0 0 Z " fill="#FDEA45" transform="translate(186,107)"/>
<path d="M0 0 C1.32 0.66 2.64 1.32 4 2 C4 2.66 4 3.32 4 4 C1.36 4 -1.28 4 -4 4 C-2.68 3.67 -1.36 3.34 0 3 C0 2.01 0 1.02 0 0 Z " fill="#328D8A" transform="translate(25,147)"/>
<path d="M0 0 C1.98 0.99 1.98 0.99 4 2 C3.67 3.32 3.34 4.64 3 6 C2.01 5.34 1.02 4.68 0 4 C0 2.68 0 1.36 0 0 Z " fill="#FCE201" transform="translate(30,130)"/>
<path d="M0 0 C0.99 0.33 1.98 0.66 3 1 C3 2.32 3 3.64 3 5 C1.68 4.67 0.36 4.34 -1 4 C-0.67 2.68 -0.34 1.36 0 0 Z " fill="#FFFDF1" transform="translate(242,112)"/>
<path d="M0 0 C0.33 0 0.66 0 1 0 C1 2.31 1 4.62 1 7 C-0.32 6.34 -1.64 5.68 -3 5 C-2.03114628 3.31503702 -1.03013277 1.64821244 0 0 Z " fill="#F4DE05" transform="translate(34,81)"/>
<path d="M0 0 C0.99 0.33 1.98 0.66 3 1 C2.67 1.99 2.34 2.98 2 4 C0.68 3.34 -0.64 2.68 -2 2 C-1.34 2 -0.68 2 0 2 C0 1.34 0 0.68 0 0 Z " fill="#FFFFFF" transform="translate(16,83)"/>
<path d="M0 0 C0.99 0.33 1.98 0.66 3 1 C2.67 1.99 2.34 2.98 2 4 C1.01 3.67 0.02 3.34 -1 3 C-0.67 2.01 -0.34 1.02 0 0 Z " fill="#FFFFFF" transform="translate(225,231)"/>
<path d="M0 0 C0.99 0.33 1.98 0.66 3 1 C2.01 2.485 2.01 2.485 1 4 C0.34 3.01 -0.32 2.02 -1 1 C-0.67 0.67 -0.34 0.34 0 0 Z " fill="#FFFFFF" transform="translate(183,202)"/>
<path d="M0 0 C0.99 0.33 1.98 0.66 3 1 C2.67 1.99 2.34 2.98 2 4 C1.34 3.67 0.68 3.34 0 3 C0 2.01 0 1.02 0 0 Z " fill="#FFFFFF" transform="translate(0,194)"/>
<path d="M0 0 C0.66 0.33 1.32 0.66 2 1 C2 1.99 2 2.98 2 4 C1.01 3.67 0.02 3.34 -1 3 C-0.67 2.01 -0.34 1.02 0 0 Z " fill="#FFFFFF" transform="translate(100,142)"/>
<path d="M0 0 C0.99 0.33 1.98 0.66 3 1 C2.67 1.66 2.34 2.32 2 3 C1.01 3 0.02 3 -1 3 C-0.67 2.01 -0.34 1.02 0 0 Z " fill="#FFFFFF" transform="translate(58,113)"/>
<path d="M0 0 C0.99 0 1.98 0 3 0 C3 0.99 3 1.98 3 3 C2.01 3 1.02 3 0 3 C0 2.01 0 1.02 0 0 Z " fill="#FFFFFF" transform="translate(215,68)"/>
<path d="M0 0 C1.485 0.99 1.485 0.99 3 2 C2.01 2.66 1.02 3.32 0 4 C0 2.68 0 1.36 0 0 Z " fill="#FFFFFF" transform="translate(174,38)"/>
<path d="M0 0 C0.99 0.99 1.98 1.98 3 3 C1.68 3 0.36 3 -1 3 C-0.67 2.01 -0.34 1.02 0 0 Z " fill="#FFFFFF" transform="translate(132,8)"/>
<path d="M0 0 C1.32 0 2.64 0 4 0 C3.67 0.99 3.34 1.98 3 3 C2.34 3 1.68 3 1 3 C0.67 2.01 0.34 1.02 0 0 Z " fill="#FFFFFF" transform="translate(12,0)"/>
<path d="M0 0 C1.485 0.99 1.485 0.99 3 2 C1.68 2.33 0.36 2.66 -1 3 C-0.67 2.01 -0.34 1.02 0 0 Z " fill="#FFFFFF" transform="translate(9,253)"/>
<path d="M0 0 C1.485 0.99 1.485 0.99 3 2 C1.68 2.33 0.36 2.66 -1 3 C-0.67 2.01 -0.34 1.02 0 0 Z " fill="#FFFFFF" transform="translate(26,247)"/>
<path d="M0 0 C0.66 0.33 1.32 0.66 2 1 C1.67 1.99 1.34 2.98 1 4 C0.34 3.67 -0.32 3.34 -1 3 C-0.67 2.01 -0.34 1.02 0 0 Z " fill="#FFFFFF" transform="translate(142,172)"/>
<path d="M0 0 C0.99 0 1.98 0 3 0 C2.67 0.99 2.34 1.98 2 3 C1.34 2.01 0.68 1.02 0 0 Z " fill="#FFFFFF" transform="translate(253,0)"/>
<path d="" fill="#FFFFFF" transform="translate(0,0)"/>
</svg>
