<?xml version="1.0" encoding="UTF-8"?>
<svg version="1.1" xmlns="http://www.w3.org/2000/svg" width="1024" height="288">
<path d="M0 0 C1.20785156 -0.020625 2.41570312 -0.04125 3.66015625 -0.0625 C20.17460063 -0.13360633 34.19287745 4.46518111 46.203125 16.0546875 C46.91984375 16.77914063 47.6365625 17.50359375 48.375 18.25 C48.92671875 18.76820312 49.4784375 19.28640625 50.046875 19.8203125 C55.79476205 25.72271264 58.89545515 33.89350036 62.375 41.25 C62.01447829 33.79921802 59.96645013 28.72803622 56.375 22.25 C55.70199606 20.91985417 55.03308252 19.58759098 54.375 18.25 C62.49840144 20.28085036 68.55483214 25.58682678 73.375 32.25 C76.70309472 39.05853181 76.38541669 47.19340099 74.58203125 54.43359375 C72.95038453 59.040964 70.95797352 63.09799958 68.375 67.25 C69.10847656 67.48589844 69.84195313 67.72179687 70.59765625 67.96484375 C78.24773799 71.50475499 84.38297291 80.98607619 88.375 88.25 C88.375 88.91 88.375 89.57 88.375 90.25 C88.9525 90.51941406 89.53 90.78882812 90.125 91.06640625 C101.60645801 97.10613155 112.25973689 108.27737033 120.375 118.25 C119.6328125 120.171875 119.6328125 120.171875 118.375 122.25 C116.4296875 123.078125 116.4296875 123.078125 114.25 123.5 C112.97125 123.7475 111.6925 123.995 110.375 124.25 C111.5815625 125.5184375 111.5815625 125.5184375 112.8125 126.8125 C115.59406529 130.19011499 116.45464569 132.7898413 116.375 137.25 C113.14078476 144.15945984 106.56362404 149.20928062 100.25 153.25 C91.03367149 156.50030611 80.70147667 154.82164437 72.109375 150.7578125 C68.64200904 148.84580784 65.34448066 146.77776281 62.1171875 144.484375 C58.94356548 142.23579976 56.79027234 142.11285375 52.9375 141.9375 C41.89548756 141.05361131 34.0901828 136.85142577 25.375 130.25 C24.385 129.59 23.395 128.93 22.375 128.25 C29.68055228 138.90393041 38.1513621 146.31731229 51.2265625 148.7890625 C52.88447795 149.03848341 54.54917762 149.24929962 56.21875 149.40234375 C59.6402075 150.74737324 60.61836811 153.10042812 62.375 156.25 C65.89490209 164.70345759 68.16478255 173.05776403 68.375 182.25 C67.39660156 181.76789063 66.41820312 181.28578125 65.41015625 180.7890625 C58.46371079 177.42261955 52.06760114 174.46462123 44.375 173.25 C45.41398438 173.806875 46.45296875 174.36375 47.5234375 174.9375 C55.74967299 179.4111576 63.36928627 183.96509075 70.375 190.25 C71.06851563 190.83910156 71.76203125 191.42820313 72.4765625 192.03515625 C81.38585734 200.13607878 88.13332344 211.99077394 88.7109375 224.10546875 C88.88193056 234.12211134 88.78013139 243.04758902 84.375 252.25 C83.88902344 253.301875 83.40304688 254.35375 82.90234375 255.4375 C76.99822098 267.27366101 68.62071463 278.04879677 57.375 285.25 C56.04995992 285.61490775 54.71704143 285.95366626 53.375 286.25 C53.21644531 285.02925781 53.05789062 283.80851562 52.89453125 282.55078125 C50.8279759 267.58007471 47.56082012 254.94877667 37.375 243.25 C36.385 242.59 35.395 241.93 34.375 241.25 C34.71273437 241.93964844 35.05046875 242.62929687 35.3984375 243.33984375 C39.93938371 252.90732868 43.90112622 263.67162134 40.375 274.25 C39.715 274.25 39.055 274.25 38.375 274.25 C37.32221175 272.95794169 36.33324253 271.61365283 35.375 270.25 C18.55557968 248.22620987 -12.84678582 242.33476784 -38.125 235 C-56.3981942 229.66780914 -75.60530373 223.06807244 -86.046875 205.9140625 C-92.87788702 193.17623421 -93.2683393 180.40016854 -93.625 166.25 C-98.69847088 175.85026427 -100.93000413 185.41765052 -101.625 196.25 C-112.42811377 188.9578982 -118.62792747 174.14868139 -121.9375 161.9375 C-125.35329235 143.74183692 -120.48604002 123.77526836 -110.625 108.25 C-119.93896916 115.46504653 -127.24875224 122.34321791 -133.92578125 132.08984375 C-134.48652344 132.80269531 -135.04726562 133.51554688 -135.625 134.25 C-136.285 134.25 -136.945 134.25 -137.625 134.25 C-142.78287097 118.7763871 -137.17033416 97.3476428 -130.625 83.25 C-120.96597811 64.21356036 -104.40270739 50.19622531 -84.20458984 43.44042969 C-75.73603293 40.86899884 -67.43799301 39.08141443 -58.625 38.25 C-71.03462565 35.88626178 -84.10602898 37.4012562 -96.625 38.25 C-93.28774746 28.11196795 -82.75237451 20.96388456 -73.625 16.25 C-47.6018903 4.23061164 -20.88223166 5.9753595 6.375 12.25 C-2.05205906 7.97515091 -10.49485543 5.4555275 -19.625 3.25 C-19.625 2.59 -19.625 1.93 -19.625 1.25 C-13.06596789 0.0239438 -6.6547746 0.0278734 0 0 Z M-33.625 21.25 C-30.58973483 23.27351012 -29.48914352 23.57161134 -26.00390625 23.92578125 C-25.07835938 24.02866455 -24.1528125 24.13154785 -23.19921875 24.23754883 C-22.20535156 24.34478271 -21.21148437 24.4520166 -20.1875 24.5625 C-4.62858879 26.43284336 9.99018298 29.82819801 24.40625 36.015625 C26.75485697 36.99215105 28.89482122 37.73937496 31.375 38.25 C27.63817164 34.13376186 23.97973135 31.61925065 19 29.1875 C18.30245605 28.84388428 17.60491211 28.50026855 16.88623047 28.14624023 C6.96834949 23.43753689 -3.62917555 20.66852619 -14.625 20.25 C-15.37007812 20.22164062 -16.11515625 20.19328125 -16.8828125 20.1640625 C-22.50970159 20.06603307 -28.04066552 20.59713417 -33.625 21.25 Z M31.375 38.25 C31.705 38.91 32.035 39.57 32.375 40.25 C33.035 39.92 33.695 39.59 34.375 39.25 C33.385 38.92 32.395 38.59 31.375 38.25 Z M-89.375 70.6875 C-90.47192414 71.86245736 -91.56098525 73.04515977 -92.625 74.25 C-88.76526434 74.25 -86.83294827 72.89502617 -83.4375 71.0625 C-64.85151993 61.41689058 -44.64602568 59.0226434 -23.9375 59.1875 C-22.29491211 59.19426758 -22.29491211 59.19426758 -20.61914062 59.20117188 C-17.95436691 59.21280844 -15.28971483 59.22915436 -12.625 59.25 C-33.8693578 45.0870948 -72.48341082 53.88512696 -89.375 70.6875 Z M14.375 56.25 C11.42221402 59.58379062 10.86013193 62.67319206 11.00390625 67.11328125 C11.65533572 70.86414358 13.44344347 74.00774439 15.375 77.25 C16.90798854 74.18402292 16.39317126 71.13592154 16.3125 67.7578125 C16.37094705 65.41262445 16.70845243 63.48918324 17.375 61.25 C24.39309784 59.00420869 29.76846678 60.53003007 36.23828125 63.47265625 C37.29595703 63.85744141 37.29595703 63.85744141 38.375 64.25 C39.035 63.92 39.695 63.59 40.375 63.25 C31.93981121 56.12304651 25.13999391 50.77307327 14.375 56.25 Z M-65.625 96.25 C-68.7710608 98.07566861 -71.70750223 100.08087841 -74.625 102.25 C-75.635625 102.971875 -76.64625 103.69375 -77.6875 104.4375 C-85.56203046 111.30862769 -91.29887616 121.45254735 -94.625 131.25 C-94.295 132.24 -93.965 133.23 -93.625 134.25 C-93.10292969 133.52296875 -92.58085938 132.7959375 -92.04296875 132.046875 C-80.30266348 116.00933015 -66.89485025 103.71576061 -50.625 92.25 C-55.92173907 90.48442031 -60.80267445 93.90481432 -65.625 96.25 Z M19.375 92.25 C19.06369141 93.19359375 19.06369141 93.19359375 18.74609375 94.15625 C14.92599564 104.76940959 9.42328583 110.30315159 -0.625 115.25 C-0.625 110.96 -0.625 106.67 -0.625 102.25 C-2.98056467 103.89889527 -4.18182133 104.82123589 -5.625 107.25 C-6.51265548 113.4118803 -6.17453991 119.5135352 -3.625 125.25 C-2.965 125.25 -2.305 125.25 -1.625 125.25 C-0.197373 123.76005634 -0.197373 123.76005634 1.3125 121.8125 C4.27633943 118.28827076 7.42966331 115.51411892 11.0625 112.6875 C15.50600928 109.1168229 18.36397331 106.61273783 20.375 101.25 C20.65273421 98.21441386 20.62282916 95.28590722 20.375 92.25 C20.045 92.25 19.715 92.25 19.375 92.25 Z M69.375 90.25 C69.375 91.24 69.375 92.23 69.375 93.25 C62.445 92.755 62.445 92.755 55.375 92.25 C59.14343047 96.37172083 63.26404305 99.88068221 68.375 102.25 C70.7063327 101.37511062 70.7063327 101.37511062 71.375 98.375 C71.705 97.34375 72.035 96.3125 72.375 95.25 C73.035 94.26 73.695 93.27 74.375 92.25 C72.725 91.59 71.075 90.93 69.375 90.25 Z M-24.625 102.25 C-31.98698156 110.50711083 -38.07446242 119.79100769 -38.75390625 131.15625 C-38.42340034 136.52446719 -36.65993668 140.11409389 -33.0625 144.0625 C-26.0830486 149.18830126 -16.52588563 149.86989989 -8.1875 150.8125 C-0.60581346 151.70356457 6.8784126 152.79937236 14.375 154.25 C7.86252232 149.20418782 -0.17280714 147.03055644 -7.9375 144.51171875 C-9.32884155 144.05877441 -9.32884155 144.05877441 -10.74829102 143.59667969 C-12.59221123 143.00096885 -14.43899738 142.41404098 -16.28881836 141.83691406 C-22.66043719 139.78704435 -27.94523354 138.01348676 -31.5625 132.0625 C-33.93703508 123.54210943 -31.1517534 117.5734099 -27.06494141 110.03491211 C-25.53642749 107.20759627 -24.625 105.5214603 -24.625 102.25 Z M-57.625 129.25 C-66.45511909 139.46576854 -71.40502296 151.59669001 -70.96484375 165.20703125 C-69.52283404 178.11881937 -63.05578091 186.94969796 -53.125 194.9375 C-48.34193144 198.36444951 -43.43407713 200.98365254 -38.0625 203.375 C-37.3715625 203.68268311 -36.680625 203.99036621 -35.96875 204.30737305 C-31.8954396 206.07716964 -31.8954396 206.07716964 -27.625 205.25 C-28.37523437 204.77691406 -29.12546875 204.30382812 -29.8984375 203.81640625 C-44.44086933 194.42060332 -56.10971335 184.15081899 -61.9375 167.5 C-64.26594379 156.24208729 -62.25586804 145.95708531 -58.625 135.25 C-58.25117187 134.1259375 -57.87734375 133.001875 -57.4921875 131.84375 C-57.20601562 130.9878125 -56.91984375 130.131875 -56.625 129.25 C-56.955 129.25 -57.285 129.25 -57.625 129.25 Z M-95.625 134.25 C-94.625 136.25 -94.625 136.25 -94.625 136.25 Z M-7.625 183.25 C-5.00476164 184.99682558 -2.71081891 186.14235687 0.171875 187.3515625 C1.59898804 187.95677734 1.59898804 187.95677734 3.05493164 188.57421875 C4.0680542 189.00347656 5.08117676 189.43273437 6.125 189.875 C27.19633285 198.95298867 52.19028296 210.18311308 62.375 232.25 C63.59042651 235.87786398 64.56482035 239.51180269 65.375 243.25 C65.705 243.25 66.035 243.25 66.375 243.25 C68.47977753 234.56779269 67.21247162 226.82193271 63.19140625 218.92578125 C49.84499384 197.26149142 22.79864646 189.56890523 -0.4375 183.87890625 C-3.73756562 183.12095192 -3.73756562 183.12095192 -7.625 183.25 Z " fill="#B2223A" transform="translate(152.625,-0.25)"/>
<path d="M0 0 C4.14784984 -0.61298274 7.86996459 -0.81664428 12 0 C15.21182674 2.78727493 16.95034765 6.31251922 19 10 C24.94628883 19.16481753 31.42664385 27.15024399 39 35 C39.72832031 35.79148438 40.45664062 36.58296875 41.20703125 37.3984375 C63.03365685 60.48039778 93.70532853 69.71494486 123.38378906 77.92993164 C147.49013348 84.63472062 172.65672265 92.79443272 188 114 C188 114.66 188 115.32 188 116 C183.67478724 115.05030633 179.35302808 114.09389229 175.04931641 113.05053711 C161.23070006 109.75504772 147.25853624 107.97561102 133.18408203 106.14819336 C95.97179658 101.28311412 57.90231951 95.14955909 30 68 C29.36578125 67.41605469 28.7315625 66.83210938 28.078125 66.23046875 C12.77795203 51.77654429 0.96370595 25.96435634 -0.109375 4.84765625 C-0.12217695 3.23141029 -0.07020744 1.61477113 0 0 Z " fill="#242F5D" transform="translate(0,172)"/>
<path d="M0 0 C1.12591553 0.00523682 2.25183105 0.01047363 3.41186523 0.01586914 C4.62680664 0.0190918 5.84174805 0.02231445 7.09350586 0.02563477 C8.37290039 0.03401367 9.65229492 0.04239258 10.97045898 0.05102539 C12.2537207 0.05553711 13.53698242 0.06004883 14.85913086 0.06469727 C18.04211921 0.07652994 21.22501661 0.09301471 24.40795898 0.11352539 C26.91399419 5.67278774 28.84392983 11.30396083 30.67358398 17.11743164 C30.98418762 18.093685 31.29479126 19.06993835 31.61480713 20.07577515 C32.6322213 23.27490473 33.64507384 26.47545929 34.65795898 29.67602539 C36.08802727 34.1793383 37.5209107 38.68175111 38.95483398 43.18383789 C39.32012207 44.33136032 39.68541016 45.47888275 40.06176758 46.66117859 C42.6043844 54.6339223 45.18773411 62.59256886 47.79858398 70.54321289 C48.1471344 71.60557663 48.49568481 72.66794037 48.85479736 73.76249695 C50.20305289 77.86936522 51.55223007 81.97589769 52.91003418 86.07962036 C53.84006583 88.8905191 54.76501807 91.70304575 55.68920898 94.51586914 C55.9665387 95.34790863 56.24386841 96.17994812 56.52960205 97.03720093 C57.55462564 100.16739517 58.40795898 102.79705279 58.40795898 106.11352539 C49.49795898 106.11352539 40.58795898 106.11352539 31.40795898 106.11352539 C30.41795898 102.71040039 29.42795898 99.30727539 28.40795898 95.80102539 C28.0947168 94.73198975 27.78147461 93.6629541 27.45874023 92.56152344 C27.21510742 91.71630127 26.97147461 90.8710791 26.72045898 90.00024414 C26.4690918 89.13616943 26.21772461 88.27209473 25.95874023 87.38183594 C25.40795898 85.11352539 25.40795898 85.11352539 25.40795898 82.11352539 C15.17795898 82.11352539 4.94795898 82.11352539 -5.59204102 82.11352539 C-6.82030415 87.3924932 -6.82030415 87.3924932 -8.04467773 92.67236328 C-8.20210449 93.34517334 -8.35953125 94.0179834 -8.52172852 94.71118164 C-8.75738525 95.72450562 -8.75738525 95.72450562 -8.99780273 96.75830078 C-9.7894784 99.89605558 -10.7030197 103.00195077 -11.59204102 106.11352539 C-19.84204102 106.11352539 -28.09204102 106.11352539 -36.59204102 106.11352539 C-34.34206197 95.98861966 -34.34206197 95.98861966 -32.70361328 90.93994141 C-32.33850647 89.80801361 -31.97339966 88.67608582 -31.597229 87.50985718 C-31.00878204 85.70685654 -31.00878204 85.70685654 -30.40844727 83.86743164 C-29.99204844 82.58146713 -29.576021 81.29538231 -29.16033936 80.00918579 C-28.05677861 76.5979766 -26.94825521 73.18840059 -25.83859634 69.77917099 C-24.69600836 66.26625503 -23.55764582 62.75197056 -22.41894531 59.23779297 C-21.06488178 55.05994156 -19.71031714 50.88225527 -18.35346985 46.70530701 C-15.84180572 38.9731554 -13.34059725 31.23777296 -10.85766602 23.49633789 C-10.34005375 21.88491321 -9.82239685 20.27350287 -9.3046875 18.66210938 C-8.61070589 16.50193185 -7.91748008 14.34153173 -7.2270813 12.1802063 C-6.6183904 10.27559467 -6.00575108 8.37224618 -5.39282227 6.46899414 C-5.06451416 5.44443115 -4.73620605 4.41986816 -4.39794922 3.36425781 C-3.24420363 0.1420886 -3.24420363 0.1420886 0 0 Z M9.40795898 24.11352539 C9.09665039 25.5018457 9.09665039 25.5018457 8.77905273 26.91821289 C5.69956671 40.4175411 2.05670665 53.75869897 -1.59204102 67.11352539 C5.99795898 67.11352539 13.58795898 67.11352539 21.40795898 67.11352539 C20.02586687 61.47040758 18.64026057 55.82840654 17.24536133 50.18847656 C16.77188074 48.2694036 16.30051289 46.34980809 15.83129883 44.4296875 C15.15667001 41.67055547 14.47447678 38.9133891 13.79077148 36.15649414 C13.58235626 35.29702682 13.37394104 34.43755951 13.15921021 33.55204773 C12.95915375 32.75144424 12.75909729 31.95084076 12.55297852 31.12597656 C12.37977081 30.42204269 12.20656311 29.71810883 12.02810669 28.99284363 C11.40260818 26.81730432 11.40260818 26.81730432 9.40795898 24.11352539 Z " fill="#B2223A" transform="translate(542.592041015625,77.886474609375)"/>
<path d="M0 0 C8.91 0 17.82 0 27 0 C27.85464844 3.73054688 28.70929688 7.46109375 29.58984375 11.3046875 C30.41662263 14.90557758 31.24427885 18.50626495 32.07202148 22.10693359 C32.64813625 24.61518613 33.22333442 27.12364937 33.79760742 29.63232422 C34.62179232 33.23199978 35.44923854 36.83091207 36.27734375 40.4296875 C36.53466782 41.55680145 36.79199188 42.68391541 37.05711365 43.84518433 C37.29728714 44.88611237 37.53746063 45.92704041 37.78491211 46.99951172 C37.99587021 47.91884491 38.20682831 48.8381781 38.42417908 49.78536987 C38.92322381 52.01957108 38.92322381 52.01957108 40 54 C40.16064438 53.36772995 40.32128876 52.7354599 40.48680115 52.08403015 C42.15629203 45.51409577 43.82732739 38.94455563 45.49926758 32.37524414 C46.12336359 29.92222039 46.7470633 27.46909578 47.37036133 25.01586914 C48.26540067 21.49338733 49.16185611 17.97126854 50.05859375 14.44921875 C50.3377916 13.34913986 50.61698944 12.24906097 50.90464783 11.11564636 C51.16484207 10.09481461 51.42503632 9.07398285 51.69311523 8.0222168 C51.92183823 7.12286911 52.15056122 6.22352142 52.38621521 5.29692078 C52.86272249 3.51372332 53.41631752 1.75104743 54 0 C61.92 0 69.84 0 78 0 C76.87498945 7.87507384 76.87498945 7.87507384 75.51977539 11.92842102 C75.21693634 12.84388199 74.91409729 13.75934296 74.6020813 14.70254517 C74.1048909 16.17490128 74.1048909 16.17490128 73.59765625 17.67700195 C73.24798798 18.72819717 72.8983197 19.7793924 72.53805542 20.86244202 C71.38530122 24.32300893 70.22401858 27.78064719 69.0625 31.23828125 C68.25871505 33.64471145 67.45541786 36.05130462 66.65258789 38.45805359 C64.97155544 43.49351916 63.2868212 48.5277218 61.59863281 53.56079102 C59.43095939 60.02342298 57.27021224 66.48834786 55.11177063 72.95406818 C53.05603474 79.11209302 50.99685438 85.26896573 48.9375 91.42578125 C48.54305695 92.60571466 48.14861389 93.78564808 47.74221802 95.00133705 C46.63056402 98.32476631 45.51681969 101.64748685 44.40234375 104.9699707 C44.07088348 105.9616626 43.73942322 106.95335449 43.3979187 107.97509766 C43.09507965 108.8764595 42.7922406 109.77782135 42.48022461 110.70649719 C42.21696884 111.49199101 41.95371307 112.27748484 41.68247986 113.0867815 C41 115 41 115 40 117 C31.42 117 22.84 117 14 117 C14.84025841 112.79870797 15.8515384 109.72515724 17.5390625 105.8515625 C18.28542969 104.09585938 18.28542969 104.09585938 19.046875 102.3046875 C20.0942259 99.85346849 21.15697741 97.4105345 22.2265625 94.96875 C22.7215625 93.79570312 23.2165625 92.62265625 23.7265625 91.4140625 C24.18627441 90.3513916 24.64598633 89.2887207 25.11962891 88.19384766 C26.8160291 82.03957495 24.60331394 76.23656008 22.59155273 70.36816406 C22.34756744 69.64044296 22.10358215 68.91272186 21.85220337 68.16294861 C21.32562494 66.59502052 20.79626071 65.02802577 20.26437187 63.46189117 C19.42284314 60.9839693 18.58870972 58.50366407 17.75636292 56.02264404 C16.2900082 51.65575246 14.81723068 47.29105956 13.34228516 42.92706299 C10.97701812 35.92875097 8.61684155 28.92875352 6.26561165 21.92571259 C5.44294258 19.48090781 4.61464267 17.03805977 3.78599548 14.59527588 C3.28343587 13.10168573 2.78110887 11.60801728 2.27905273 10.11425781 C1.93075661 9.09497444 1.93075661 9.09497444 1.57542419 8.05509949 C0.63158298 5.23106051 0 3.00178863 0 0 Z " fill="#242F5D" transform="translate(426,100)"/>
<path d="M0 0 C8.58 0 17.16 0 26 0 C27.39728014 3.49320035 28.42156942 6.38110242 29.23681641 9.97387695 C29.45689362 10.93449539 29.67697083 11.89511383 29.90371704 12.88484192 C30.13400604 13.9089769 30.36429504 14.93311188 30.6015625 15.98828125 C30.8428891 17.04661667 31.0842157 18.10495209 31.33285522 19.19535828 C32.10072542 22.56688315 32.86293352 25.93965909 33.625 29.3125 C34.14546022 31.60229838 34.66628927 33.89201296 35.1875 36.18164062 C36.46261061 41.786796 37.73307818 47.39298839 39 53 C40.54531114 50.1315199 41.520737 47.42023977 42.31274414 44.26318359 C42.54961441 43.32896576 42.78648468 42.39474792 43.03053284 41.43222046 C43.40407143 39.93049789 43.40407143 39.93049789 43.78515625 38.3984375 C44.04630722 37.36562653 44.30745819 36.33281555 44.57652283 35.26870728 C45.40955149 31.97188822 46.2364173 28.67356575 47.0625 25.375 C47.89295302 22.06950424 48.72473256 18.76435687 49.55918884 15.45986938 C50.07812114 13.40384382 50.59459638 11.34719628 51.1084137 9.28988647 C51.34213181 8.36197296 51.57584991 7.43405945 51.81665039 6.47802734 C52.02157608 5.65958344 52.22650177 4.84113953 52.43763733 3.99789429 C53 2 53 2 54 0 C61.92 0 69.84 0 78 0 C75.75 10.125 75.75 10.125 74.39279175 14.18238831 C73.93430344 15.56403923 73.93430344 15.56403923 73.46655273 16.97360229 C72.97239868 18.43988571 72.97239868 18.43988571 72.46826172 19.93579102 C71.94113083 21.51784081 71.94113083 21.51784081 71.40335083 23.1318512 C70.24972764 26.59064375 69.089758 30.04727134 67.9296875 33.50390625 C67.12502354 35.91229836 66.32075892 38.32082393 65.51687622 40.72947693 C63.62197278 46.40393355 61.72307052 52.07703625 59.8221885 57.74949163 C57.65656763 64.21270907 55.49611698 70.67765081 53.33607841 77.1427356 C48.89642987 90.43040551 44.44967928 103.71568597 40 117 C31.42 117 22.84 117 14 117 C14.80253773 112.18477363 15.58287481 109.26337349 17.5390625 104.97265625 C18.28542969 103.28946289 18.28542969 103.28946289 19.046875 101.57226562 C20.09881726 99.23273562 21.15872333 96.89677015 22.2265625 94.56445312 C22.7215625 93.44103516 23.2165625 92.31761719 23.7265625 91.16015625 C24.18627441 90.14574463 24.64598633 89.13133301 25.11962891 88.08618164 C26.84734047 82.02960873 24.60254663 76.24656558 22.59155273 70.47583008 C22.34756744 69.75946884 22.10358215 69.0431076 21.85220337 68.30503845 C21.32566532 66.76163924 20.79630012 65.21920216 20.26437187 63.67765236 C19.42250852 61.23739924 18.58846691 58.79459478 17.75636292 56.35099792 C15.99028164 51.16913555 14.2145628 45.99060493 12.4375 40.8125 C10.37416257 34.79984919 8.31481093 28.78589335 6.26561165 22.76840782 C5.44402497 20.36257672 4.61515993 17.9593346 3.78599548 15.55610657 C3.28332391 14.08285502 2.78099126 12.60948778 2.27905273 11.13598633 C2.04685532 10.4694101 1.8146579 9.80283386 1.57542419 9.11605835 C0.46772309 5.83906475 0 3.51722394 0 0 Z " fill="#B2223A" transform="translate(658,100)"/>
<path d="M0 0 C1.48959229 -0.02066528 1.48959229 -0.02066528 3.00927734 -0.04174805 C13.79547266 0.02534141 24.2359552 2.22653935 32.28125 9.8203125 C36.94626748 15.00065168 38.00350754 20.22356209 37.97705078 27.02294922 C37.97689972 28.32384491 37.97674866 29.6247406 37.97659302 30.96505737 C37.96638202 32.36993567 37.95595007 33.77481237 37.9453125 35.1796875 C37.94157846 36.62842615 37.93873333 38.07716734 37.93673706 39.52590942 C37.92913136 43.3235176 37.90950952 47.12097078 37.8873291 50.91851807 C37.86680438 54.79982405 37.85772122 58.68115529 37.84765625 62.5625 C37.82626043 70.16674523 37.79110362 77.77083108 37.75 85.375 C29.83 85.375 21.91 85.375 13.75 85.375 C13.73541748 83.62437256 13.72083496 81.87374512 13.70581055 80.07006836 C13.65402893 74.26646631 13.58870814 68.46310019 13.51428509 62.65975094 C13.46968094 59.14338947 13.43040362 55.6271412 13.40356445 52.1105957 C13.37242357 48.061719 13.31763901 44.01345462 13.26171875 39.96484375 C13.25532883 38.71041977 13.2489389 37.45599579 13.24235535 36.16355896 C13.13690887 29.87381477 13.01288819 24.84554651 9.75 19.375 C3.80300038 15.41033358 -1.22928255 16.49741032 -8.25 17.375 C-8.25 39.815 -8.25 62.255 -8.25 85.375 C-16.5 85.375 -24.75 85.375 -33.25 85.375 C-33.25 59.305 -33.25 33.235 -33.25 6.375 C-22.41884501 0.9594225 -11.95625886 0.09140306 0 0 Z " fill="#B2223A" transform="translate(986.25,98.625)"/>
<path d="M0 0 C5.42266355 5.13657579 7.86607957 11.6713677 8.18275452 19.05317688 C8.18053391 20.07243759 8.17831329 21.0916983 8.17602539 22.1418457 C8.17591209 23.88308464 8.17591209 23.88308464 8.17579651 25.65950012 C8.17063522 26.90237289 8.16547394 28.14524567 8.16015625 29.42578125 C8.1587413 30.70607712 8.15732635 31.98637299 8.15586853 33.3054657 C8.15206397 36.6969704 8.14225143 40.08843177 8.13116455 43.47991943 C8.12090597 46.94559137 8.11636141 50.41127036 8.11132812 53.87695312 C8.10030755 60.66798748 8.0835757 67.45898981 8.0625 74.25 C6.18949975 74.90161012 4.3139945 75.54602195 2.4375 76.1875 C0.87128906 76.72697266 0.87128906 76.72697266 -0.7265625 77.27734375 C-14.38552248 81.41491192 -34.07680632 81.79681002 -47.47265625 76.578125 C-53.00499737 73.5971488 -56.74103478 70.33416523 -59.875 64.875 C-62.12220309 57.20807182 -62.81595195 49.87666755 -59.9375 42.25 C-52.80587498 30.98124445 -41.28914949 27.3559058 -28.8671875 24.55859375 C-24.18120991 23.64565806 -19.73141139 22.99086965 -14.9375 23.25 C-15.30903124 21.64003129 -15.71081633 20.037027 -16.125 18.4375 C-16.34542969 17.54417969 -16.56585937 16.65085937 -16.79296875 15.73046875 C-18.29153733 12.48271774 -19.68555907 11.67272416 -22.9375 10.25 C-32.88796408 8.69216994 -42.46243638 11.52546309 -51.9375 14.25 C-52.80305948 12.15049414 -53.65461277 10.0452093 -54.5 7.9375 C-54.97566406 6.76574219 -55.45132813 5.59398438 -55.94140625 4.38671875 C-56.9375 1.25 -56.9375 1.25 -55.9375 -1.75 C-53.20703125 -2.8828125 -53.20703125 -2.8828125 -49.75 -3.875 C-48.62207031 -4.20757812 -47.49414062 -4.54015625 -46.33203125 -4.8828125 C-31.52693062 -8.66501312 -12.64806876 -9.64415243 0 0 Z M-24.3125 37 C-25.43398438 37.32484375 -26.55546875 37.6496875 -27.7109375 37.984375 C-31.83082207 39.6004072 -34.78145819 41.48625042 -37.23046875 45.22265625 C-38.85379392 49.87738421 -38.65755457 54.6727376 -36.625 59.125 C-33.46894614 63.11388134 -33.46894614 63.11388134 -28.9375 65.25 C-27.10609259 65.34377689 -25.27130013 65.37992957 -23.4375 65.375 C-22.4784375 65.37757813 -21.519375 65.38015625 -20.53125 65.3828125 C-17.82178848 65.35992972 -17.82178848 65.35992972 -14.9375 64.25 C-14.9375 54.68 -14.9375 45.11 -14.9375 35.25 C-18.38240637 35.25 -21.01067357 36.0177633 -24.3125 37 Z " fill="#B2223A" transform="translate(927.9375,105.75)"/>
<path d="M0 0 C18.15 0 36.3 0 55 0 C55 5.61 55 11.22 55 17 C45.43 17 35.86 17 26 17 C26 25.58 26 34.16 26 43 C34.25 43 42.5 43 51 43 C51 48.61 51 54.22 51 60 C42.75 60 34.5 60 26 60 C26 75.18 26 90.36 26 106 C17.42 106 8.84 106 0 106 C0 71.02 0 36.04 0 0 Z " fill="#242F5D" transform="translate(321,78)"/>
<path d="M0 0 C0 8.91 0 17.82 0 27 C4.29 27 8.58 27 13 27 C13 32.61 13 38.22 13 44 C8.71 44 4.42 44 0 44 C0.0935361 50.6205306 0.1996313 57.24069557 0.31738281 63.86083984 C0.35567157 66.11306236 0.39052461 68.365346 0.421875 70.61767578 C0.46752737 73.85471447 0.52552215 77.09133236 0.5859375 80.328125 C0.60326431 81.83925873 0.60326431 81.83925873 0.62094116 83.38092041 C0.64081085 84.32159363 0.66068054 85.26226685 0.68115234 86.23144531 C0.69447601 87.05751282 0.70779968 87.88358032 0.7215271 88.73468018 C1.02949009 91.23989579 1.66388158 92.86662355 3 95 C5.81989159 96.59628479 5.81989159 96.59628479 13 96 C13 101.28 13 106.56 13 112 C3.88215119 115.03928294 -4.9580109 115.40858281 -13.83984375 111.3359375 C-18.83758594 108.2451096 -22.43577898 103.68807642 -24 98 C-25.08598047 91.99031547 -25.12937749 86.13160777 -25.09765625 80.03515625 C-25.0962413 79.00184677 -25.09482635 77.96853729 -25.09336853 76.90391541 C-25.08779839 73.6234134 -25.07525141 70.34298117 -25.0625 67.0625 C-25.05748114 64.83007911 -25.05291891 62.59765715 -25.04882812 60.36523438 C-25.03783875 54.91013269 -25.0211305 49.45507133 -25 44 C-27.64 44 -30.28 44 -33 44 C-33 38.39 -33 32.78 -33 27 C-30.36 27 -27.72 27 -25 27 C-25 20.4 -25 13.8 -25 7 C-19.33018953 5.11006318 -13.7648891 3.31511308 -8 1.8125 C-7.33355469 1.63525391 -6.66710937 1.45800781 -5.98046875 1.27539062 C-1.14481781 0 -1.14481781 0 0 0 Z " fill="#B2223A" transform="translate(843,71)"/>
<path d="M0 0 C1.32064453 0.01087646 1.32064453 0.01087646 2.66796875 0.02197266 C10.63145128 0.19156534 17.0525342 1.74404658 24.125 5.375 C23.55674347 10.91550113 21.49613483 15.41215966 19.125 20.375 C18.60292969 20.1584375 18.08085938 19.941875 17.54296875 19.71875 C11.43251456 17.4072647 5.64759117 16.55165652 -0.875 17.375 C-4.18116669 19.11960887 -4.18116669 19.11960887 -4.875 22.6875 C-5.26130545 26.42938352 -5.26130545 26.42938352 -2.8671875 28.859375 C0.56739726 31.74693713 3.94735826 33.46306707 8 35.3125 C14.91980667 38.63206831 20.54624907 41.59283197 25 48.125 C27.58430834 55.59077964 27.77498 62.90032815 25.125 70.375 C21.09401232 77.98908783 14.81522355 83.00273038 6.671875 85.6796875 C-5.95492245 88.1549848 -18.98294207 87.31715394 -30.875 82.375 C-31.96254852 79.02535056 -31.96235791 77.59887221 -30.66015625 74.26171875 C-30.09167969 73.20597656 -29.52320313 72.15023437 -28.9375 71.0625 C-28.08865234 69.45955078 -28.08865234 69.45955078 -27.22265625 67.82421875 C-26.77792969 67.01597656 -26.33320312 66.20773438 -25.875 65.375 C-24.29912109 65.84292969 -24.29912109 65.84292969 -22.69140625 66.3203125 C-11.8326839 69.38990262 -11.8326839 69.38990262 -0.875 67.375 C-0.56943774 65.98635566 -0.30699192 64.58818736 -0.0625 63.1875 C0.08832031 62.41019531 0.23914063 61.63289063 0.39453125 60.83203125 C-0.02684778 56.99076443 -1.93033848 55.7735051 -4.875 53.375 C-7.4667095 51.84869819 -10.14425082 50.56955151 -12.875 49.3125 C-19.99405635 45.99596545 -25.69654949 43.06100153 -29.0859375 35.6484375 C-31.50202734 28.68722817 -31.28447467 22.25921333 -28.875 15.375 C-25.05006107 8.29177976 -19.71820602 3.66263232 -12.140625 0.97045898 C-8.11003882 -0.08887288 -4.14503285 -0.06703345 0 0 Z " fill="#B2223A" transform="translate(773.875,98.625)"/>
<path d="M0 0 C0 37.29 0 74.58 0 113 C-8.25 113 -16.5 113 -25 113 C-25 78.02 -25 43.04 -25 7 C-15.99641222 3.62365458 -15.99641222 3.62365458 -12.75390625 2.83203125 C-12.06232422 2.66123047 -11.37074219 2.49042969 -10.65820312 2.31445312 C-9.96662109 2.14880859 -9.27503906 1.98316406 -8.5625 1.8125 C-7.48452148 1.54663086 -7.48452148 1.54663086 -6.38476562 1.27539062 C-1.1699445 0 -1.1699445 0 0 0 Z " fill="#242F5D" transform="translate(415,71)"/>
<path d="M0 0 C1.15371094 0.00322266 2.30742188 0.00644531 3.49609375 0.00976562 C4.68589844 0.01814453 5.87570312 0.02652344 7.1015625 0.03515625 C8.92107422 0.04192383 8.92107422 0.04192383 10.77734375 0.04882812 C13.76046757 0.06057271 16.74348929 0.07699785 19.7265625 0.09765625 C19.11160977 2.91270683 18.48518349 5.72430569 17.8515625 8.53515625 C17.67753906 9.33759766 17.50351562 10.14003906 17.32421875 10.96679688 C16.85505737 13.02589405 16.29683491 15.06423968 15.7265625 17.09765625 C14.7365625 17.59265625 14.7365625 17.59265625 13.7265625 18.09765625 C12.7365625 17.76765625 11.7465625 17.43765625 10.7265625 17.09765625 C7.4265625 17.09765625 4.1265625 17.09765625 0.7265625 17.09765625 C0.3965625 39.53765625 0.0665625 61.97765625 -0.2734375 85.09765625 C-8.5234375 85.09765625 -16.7734375 85.09765625 -25.2734375 85.09765625 C-25.2734375 58.69765625 -25.2734375 32.29765625 -25.2734375 5.09765625 C-8.56819998 -0.04241683 -8.56819998 -0.04241683 0 0 Z " fill="#B2223A" transform="translate(635.2734375,98.90234375)"/>
<path d="M0 0 C0.78761719 0.433125 1.57523438 0.86625 2.38671875 1.3125 C11.5274554 5.98563401 19.92860359 7.9223956 30 5 C30.08150744 7.06183633 30.1394194 9.12461349 30.1875 11.1875 C30.23970703 12.91033203 30.23970703 12.91033203 30.29296875 14.66796875 C29.97323533 18.3044035 29.18158273 20.1105914 27 23 C23.99049825 24.50475088 22.39141132 24.42392641 19 24 C10.44075263 20.30556374 3.49150549 13.7623359 0 5 C-0.125 2.25 -0.125 2.25 0 0 Z " fill="#B2223A" transform="translate(222,154)"/>
</svg>
